  0
SECTION
  2
ENTITIES
  0
LINE
 10
-36.147000
 11
-36.147000
 20
-26.900000
 21
-14.200000
  0
LINE
 10
-36.147000
 11
-33.147000
 20
-14.200000
 21
-14.200000
  0
LINE
 10
-33.147000
 11
-33.147000
 20
-14.200000
 21
-26.900000
  0
LINE
 10
-33.147000
 11
-36.147000
 20
-26.900000
 21
-26.900000
  0
LINE
 10
-36.147000
 11
-36.147000
 20
14.200000
 21
26.900000
  0
LINE
 10
-36.147000
 11
-33.147000
 20
26.900000
 21
26.900000
  0
LINE
 10
-33.147000
 11
-33.147000
 20
26.900000
 21
14.200000
  0
LINE
 10
-33.147000
 11
-36.147000
 20
14.200000
 21
14.200000
  0
LINE
 10
-30.175000
 11
-30.164000
 20
-33.655000
 21
-33.470000
  0
LINE
 10
-30.164000
 11
-30.129000
 20
-33.470000
 21
-33.289000
  0
LINE
 10
-30.129000
 11
-30.072000
 20
-33.289000
 21
-33.113000
  0
LINE
 10
-30.072000
 11
-29.993000
 20
-33.113000
 21
-32.945000
  0
LINE
 10
-29.993000
 11
-29.894000
 20
-32.945000
 21
-32.789000
  0
LINE
 10
-29.894000
 11
-29.776000
 20
-32.789000
 21
-32.647000
  0
LINE
 10
-29.776000
 11
-29.641000
 20
-32.647000
 21
-32.520000
  0
LINE
 10
-29.641000
 11
-29.491000
 20
-32.520000
 21
-32.411000
  0
LINE
 10
-29.491000
 11
-29.329000
 20
-32.411000
 21
-32.322000
  0
LINE
 10
-29.329000
 11
-29.157000
 20
-32.322000
 21
-32.254000
  0
LINE
 10
-29.157000
 11
-28.978000
 20
-32.254000
 21
-32.208000
  0
LINE
 10
-28.978000
 11
-28.795000
 20
-32.208000
 21
-32.185000
  0
LINE
 10
-28.795000
 11
-28.609000
 20
-32.185000
 21
-32.185000
  0
LINE
 10
-28.609000
 11
-28.426000
 20
-32.185000
 21
-32.208000
  0
LINE
 10
-28.426000
 11
-28.247000
 20
-32.208000
 21
-32.254000
  0
LINE
 10
-28.247000
 11
-28.075000
 20
-32.254000
 21
-32.322000
  0
LINE
 10
-28.075000
 11
-27.913000
 20
-32.322000
 21
-32.411000
  0
LINE
 10
-27.913000
 11
-27.763000
 20
-32.411000
 21
-32.520000
  0
LINE
 10
-27.763000
 11
-27.628000
 20
-32.520000
 21
-32.647000
  0
LINE
 10
-27.628000
 11
-27.510000
 20
-32.647000
 21
-32.789000
  0
LINE
 10
-27.510000
 11
-27.411000
 20
-32.789000
 21
-32.945000
  0
LINE
 10
-27.411000
 11
-27.332000
 20
-32.945000
 21
-33.113000
  0
LINE
 10
-27.332000
 11
-27.275000
 20
-33.113000
 21
-33.289000
  0
LINE
 10
-27.275000
 11
-27.240000
 20
-33.289000
 21
-33.470000
  0
LINE
 10
-27.240000
 11
-27.229000
 20
-33.470000
 21
-33.655000
  0
LINE
 10
-27.229000
 11
-27.240000
 20
-33.655000
 21
-33.840000
  0
LINE
 10
-27.240000
 11
-27.275000
 20
-33.840000
 21
-34.021000
  0
LINE
 10
-27.275000
 11
-27.332000
 20
-34.021000
 21
-34.197000
  0
LINE
 10
-27.332000
 11
-27.411000
 20
-34.197000
 21
-34.365000
  0
LINE
 10
-27.411000
 11
-27.510000
 20
-34.365000
 21
-34.521000
  0
LINE
 10
-27.510000
 11
-27.628000
 20
-34.521000
 21
-34.663000
  0
LINE
 10
-27.628000
 11
-27.763000
 20
-34.663000
 21
-34.790000
  0
LINE
 10
-27.763000
 11
-27.913000
 20
-34.790000
 21
-34.899000
  0
LINE
 10
-27.913000
 11
-28.075000
 20
-34.899000
 21
-34.988000
  0
LINE
 10
-28.075000
 11
-28.247000
 20
-34.988000
 21
-35.056000
  0
LINE
 10
-28.247000
 11
-28.426000
 20
-35.056000
 21
-35.102000
  0
LINE
 10
-28.426000
 11
-28.609000
 20
-35.102000
 21
-35.125000
  0
LINE
 10
-28.609000
 11
-28.795000
 20
-35.125000
 21
-35.125000
  0
LINE
 10
-28.795000
 11
-28.978000
 20
-35.125000
 21
-35.102000
  0
LINE
 10
-28.978000
 11
-29.157000
 20
-35.102000
 21
-35.056000
  0
LINE
 10
-29.157000
 11
-29.329000
 20
-35.056000
 21
-34.988000
  0
LINE
 10
-29.329000
 11
-29.491000
 20
-34.988000
 21
-34.899000
  0
LINE
 10
-29.491000
 11
-29.641000
 20
-34.899000
 21
-34.790000
  0
LINE
 10
-29.641000
 11
-29.776000
 20
-34.790000
 21
-34.663000
  0
LINE
 10
-29.776000
 11
-29.894000
 20
-34.663000
 21
-34.521000
  0
LINE
 10
-29.894000
 11
-29.993000
 20
-34.521000
 21
-34.365000
  0
LINE
 10
-29.993000
 11
-30.072000
 20
-34.365000
 21
-34.197000
  0
LINE
 10
-30.072000
 11
-30.129000
 20
-34.197000
 21
-34.021000
  0
LINE
 10
-30.129000
 11
-30.164000
 20
-34.021000
 21
-33.840000
  0
LINE
 10
-30.164000
 11
-30.175000
 20
-33.840000
 21
-33.655000
  0
LINE
 10
-30.175000
 11
-30.164000
 20
33.655000
 21
33.840000
  0
LINE
 10
-30.164000
 11
-30.129000
 20
33.840000
 21
34.021000
  0
LINE
 10
-30.129000
 11
-30.072000
 20
34.021000
 21
34.197000
  0
LINE
 10
-30.072000
 11
-29.993000
 20
34.197000
 21
34.365000
  0
LINE
 10
-29.993000
 11
-29.894000
 20
34.365000
 21
34.521000
  0
LINE
 10
-29.894000
 11
-29.776000
 20
34.521000
 21
34.663000
  0
LINE
 10
-29.776000
 11
-29.641000
 20
34.663000
 21
34.790000
  0
LINE
 10
-29.641000
 11
-29.491000
 20
34.790000
 21
34.899000
  0
LINE
 10
-29.491000
 11
-29.329000
 20
34.899000
 21
34.988000
  0
LINE
 10
-29.329000
 11
-29.157000
 20
34.988000
 21
35.056000
  0
LINE
 10
-29.157000
 11
-28.978000
 20
35.056000
 21
35.102000
  0
LINE
 10
-28.978000
 11
-28.795000
 20
35.102000
 21
35.125000
  0
LINE
 10
-28.795000
 11
-28.609000
 20
35.125000
 21
35.125000
  0
LINE
 10
-28.609000
 11
-28.426000
 20
35.125000
 21
35.102000
  0
LINE
 10
-28.426000
 11
-28.247000
 20
35.102000
 21
35.056000
  0
LINE
 10
-28.247000
 11
-28.075000
 20
35.056000
 21
34.988000
  0
LINE
 10
-28.075000
 11
-27.913000
 20
34.988000
 21
34.899000
  0
LINE
 10
-27.913000
 11
-27.763000
 20
34.899000
 21
34.790000
  0
LINE
 10
-27.763000
 11
-27.628000
 20
34.790000
 21
34.663000
  0
LINE
 10
-27.628000
 11
-27.510000
 20
34.663000
 21
34.521000
  0
LINE
 10
-27.510000
 11
-27.411000
 20
34.521000
 21
34.365000
  0
LINE
 10
-27.411000
 11
-27.332000
 20
34.365000
 21
34.197000
  0
LINE
 10
-27.332000
 11
-27.275000
 20
34.197000
 21
34.021000
  0
LINE
 10
-27.275000
 11
-27.240000
 20
34.021000
 21
33.840000
  0
LINE
 10
-27.240000
 11
-27.229000
 20
33.840000
 21
33.655000
  0
LINE
 10
-27.229000
 11
-27.240000
 20
33.655000
 21
33.470000
  0
LINE
 10
-27.240000
 11
-27.275000
 20
33.470000
 21
33.289000
  0
LINE
 10
-27.275000
 11
-27.332000
 20
33.289000
 21
33.113000
  0
LINE
 10
-27.332000
 11
-27.411000
 20
33.113000
 21
32.945000
  0
LINE
 10
-27.411000
 11
-27.510000
 20
32.945000
 21
32.789000
  0
LINE
 10
-27.510000
 11
-27.628000
 20
32.789000
 21
32.647000
  0
LINE
 10
-27.628000
 11
-27.763000
 20
32.647000
 21
32.520000
  0
LINE
 10
-27.763000
 11
-27.913000
 20
32.520000
 21
32.411000
  0
LINE
 10
-27.913000
 11
-28.075000
 20
32.411000
 21
32.322000
  0
LINE
 10
-28.075000
 11
-28.247000
 20
32.322000
 21
32.254000
  0
LINE
 10
-28.247000
 11
-28.426000
 20
32.254000
 21
32.208000
  0
LINE
 10
-28.426000
 11
-28.609000
 20
32.208000
 21
32.185000
  0
LINE
 10
-28.609000
 11
-28.795000
 20
32.185000
 21
32.185000
  0
LINE
 10
-28.795000
 11
-28.978000
 20
32.185000
 21
32.208000
  0
LINE
 10
-28.978000
 11
-29.157000
 20
32.208000
 21
32.254000
  0
LINE
 10
-29.157000
 11
-29.329000
 20
32.254000
 21
32.322000
  0
LINE
 10
-29.329000
 11
-29.491000
 20
32.322000
 21
32.411000
  0
LINE
 10
-29.491000
 11
-29.641000
 20
32.411000
 21
32.520000
  0
LINE
 10
-29.641000
 11
-29.776000
 20
32.520000
 21
32.647000
  0
LINE
 10
-29.776000
 11
-29.894000
 20
32.647000
 21
32.789000
  0
LINE
 10
-29.894000
 11
-29.993000
 20
32.789000
 21
32.945000
  0
LINE
 10
-29.993000
 11
-30.072000
 20
32.945000
 21
33.113000
  0
LINE
 10
-30.072000
 11
-30.129000
 20
33.113000
 21
33.289000
  0
LINE
 10
-30.129000
 11
-30.164000
 20
33.289000
 21
33.470000
  0
LINE
 10
-30.164000
 11
-30.175000
 20
33.470000
 21
33.655000
  0
LINE
 10
-22.924000
 11
-22.924000
 20
-41.100000
 21
-38.100000
  0
LINE
 10
-22.924000
 11
-10.224000
 20
-38.100000
 21
-38.100000
  0
LINE
 10
-10.224000
 11
-10.224000
 20
-38.100000
 21
-41.100000
  0
LINE
 10
-10.224000
 11
-22.924000
 20
-41.100000
 21
-41.100000
  0
LINE
 10
-22.924000
 11
-22.924000
 20
38.100000
 21
41.100000
  0
LINE
 10
-22.924000
 11
-10.224000
 20
41.100000
 21
41.100000
  0
LINE
 10
-10.224000
 11
-10.224000
 20
41.100000
 21
38.100000
  0
LINE
 10
-10.224000
 11
-22.924000
 20
38.100000
 21
38.100000
  0
LINE
 10
-11.498000
 11
-11.431000
 20
0.000000
 21
1.059000
  0
LINE
 10
-11.431000
 11
-11.233000
 20
1.059000
 21
2.101000
  0
LINE
 10
-11.233000
 11
-10.905000
 20
2.101000
 21
3.111000
  0
LINE
 10
-10.905000
 11
-10.453000
 20
3.111000
 21
4.071000
  0
LINE
 10
-10.453000
 11
-9.884000
 20
4.071000
 21
4.967000
  0
LINE
 10
-9.884000
 11
-9.208000
 20
4.967000
 21
5.784000
  0
LINE
 10
-9.208000
 11
-8.434000
 20
5.784000
 21
6.511000
  0
LINE
 10
-8.434000
 11
-7.576000
 20
6.511000
 21
7.135000
  0
LINE
 10
-7.576000
 11
-6.646000
 20
7.135000
 21
7.646000
  0
LINE
 10
-6.646000
 11
-5.659000
 20
7.646000
 21
8.036000
  0
LINE
 10
-5.659000
 11
-4.631000
 20
8.036000
 21
8.300000
  0
LINE
 10
-4.631000
 11
-3.579000
 20
8.300000
 21
8.433000
  0
LINE
 10
-3.579000
 11
-2.517000
 20
8.433000
 21
8.433000
  0
LINE
 10
-2.517000
 11
-1.465000
 20
8.433000
 21
8.300000
  0
LINE
 10
-1.465000
 11
-0.437000
 20
8.300000
 21
8.036000
  0
LINE
 10
-0.437000
 11
0.550000
 20
8.036000
 21
7.646000
  0
LINE
 10
0.550000
 11
1.480000
 20
7.646000
 21
7.135000
  0
LINE
 10
1.480000
 11
2.338000
 20
7.135000
 21
6.511000
  0
LINE
 10
2.338000
 11
3.112000
 20
6.511000
 21
5.784000
  0
LINE
 10
3.112000
 11
3.788000
 20
5.784000
 21
4.967000
  0
LINE
 10
3.788000
 11
4.357000
 20
4.967000
 21
4.071000
  0
LINE
 10
4.357000
 11
4.809000
 20
4.071000
 21
3.111000
  0
LINE
 10
4.809000
 11
5.137000
 20
3.111000
 21
2.101000
  0
LINE
 10
5.137000
 11
5.335000
 20
2.101000
 21
1.059000
  0
LINE
 10
5.335000
 11
5.402000
 20
1.059000
 21
0.000000
  0
LINE
 10
5.402000
 11
5.335000
 20
0.000000
 21
-1.059000
  0
LINE
 10
5.335000
 11
5.137000
 20
-1.059000
 21
-2.101000
  0
LINE
 10
5.137000
 11
4.809000
 20
-2.101000
 21
-3.111000
  0
LINE
 10
4.809000
 11
4.357000
 20
-3.111000
 21
-4.071000
  0
LINE
 10
4.357000
 11
3.788000
 20
-4.071000
 21
-4.967000
  0
LINE
 10
3.788000
 11
3.112000
 20
-4.967000
 21
-5.784000
  0
LINE
 10
3.112000
 11
2.338000
 20
-5.784000
 21
-6.511000
  0
LINE
 10
2.338000
 11
1.480000
 20
-6.511000
 21
-7.135000
  0
LINE
 10
1.480000
 11
0.550000
 20
-7.135000
 21
-7.646000
  0
LINE
 10
0.550000
 11
-0.437000
 20
-7.646000
 21
-8.036000
  0
LINE
 10
-0.437000
 11
-1.465000
 20
-8.036000
 21
-8.300000
  0
LINE
 10
-1.465000
 11
-2.517000
 20
-8.300000
 21
-8.433000
  0
LINE
 10
-2.517000
 11
-3.579000
 20
-8.433000
 21
-8.433000
  0
LINE
 10
-3.579000
 11
-4.631000
 20
-8.433000
 21
-8.300000
  0
LINE
 10
-4.631000
 11
-5.659000
 20
-8.300000
 21
-8.036000
  0
LINE
 10
-5.659000
 11
-6.646000
 20
-8.036000
 21
-7.646000
  0
LINE
 10
-6.646000
 11
-7.576000
 20
-7.646000
 21
-7.135000
  0
LINE
 10
-7.576000
 11
-8.434000
 20
-7.135000
 21
-6.511000
  0
LINE
 10
-8.434000
 11
-9.208000
 20
-6.511000
 21
-5.784000
  0
LINE
 10
-9.208000
 11
-9.884000
 20
-5.784000
 21
-4.967000
  0
LINE
 10
-9.884000
 11
-10.453000
 20
-4.967000
 21
-4.071000
  0
LINE
 10
-10.453000
 11
-10.905000
 20
-4.071000
 21
-3.111000
  0
LINE
 10
-10.905000
 11
-11.233000
 20
-3.111000
 21
-2.101000
  0
LINE
 10
-11.233000
 11
-11.431000
 20
-2.101000
 21
-1.059000
  0
LINE
 10
-11.431000
 11
-11.498000
 20
-1.059000
 21
0.000000
  0
LINE
 10
-40.211000
 11
-40.211000
 20
-38.814000
 21
38.814000
  0
LINE
 10
-40.211000
 11
-40.161000
 20
38.814000
 21
39.610000
  0
LINE
 10
-40.161000
 11
-40.012000
 20
39.610000
 21
40.393000
  0
LINE
 10
-40.012000
 11
-39.765000
 20
40.393000
 21
41.152000
  0
LINE
 10
-39.765000
 11
-39.426000
 20
41.152000
 21
41.873000
  0
LINE
 10
-39.426000
 11
-38.998000
 20
41.873000
 21
42.546000
  0
LINE
 10
-38.998000
 11
-38.490000
 20
42.546000
 21
43.161000
  0
LINE
 10
-38.490000
 11
-37.909000
 20
43.161000
 21
43.707000
  0
LINE
 10
-37.909000
 11
-37.264000
 20
43.707000
 21
44.175000
  0
LINE
 10
-37.264000
 11
-36.565000
 20
44.175000
 21
44.560000
  0
LINE
 10
-36.565000
 11
-35.823000
 20
44.560000
 21
44.853000
  0
LINE
 10
-35.823000
 11
-35.051000
 20
44.853000
 21
45.052000
  0
LINE
 10
-35.051000
 11
-34.260000
 20
45.052000
 21
45.151000
  0
LINE
 10
-34.260000
 11
-33.861000
 20
45.151000
 21
45.151000
  0
LINE
 10
-33.861000
 11
-33.861000
 20
45.151000
 21
45.164000
  0
LINE
 10
-33.861000
 11
33.861000
 20
45.164000
 21
45.164000
  0
LINE
 10
33.861000
 11
33.861000
 20
45.164000
 21
45.151000
  0
LINE
 10
33.861000
 11
34.260000
 20
45.151000
 21
45.151000
  0
LINE
 10
34.260000
 11
35.051000
 20
45.151000
 21
45.052000
  0
LINE
 10
35.051000
 11
35.823000
 20
45.052000
 21
44.853000
  0
LINE
 10
35.823000
 11
36.565000
 20
44.853000
 21
44.560000
  0
LINE
 10
36.565000
 11
37.264000
 20
44.560000
 21
44.175000
  0
LINE
 10
37.264000
 11
37.909000
 20
44.175000
 21
43.707000
  0
LINE
 10
37.909000
 11
38.490000
 20
43.707000
 21
43.161000
  0
LINE
 10
38.490000
 11
38.998000
 20
43.161000
 21
42.546000
  0
LINE
 10
38.998000
 11
39.426000
 20
42.546000
 21
41.873000
  0
LINE
 10
39.426000
 11
39.765000
 20
41.873000
 21
41.152000
  0
LINE
 10
39.765000
 11
40.012000
 20
41.152000
 21
40.393000
  0
LINE
 10
40.012000
 11
40.161000
 20
40.393000
 21
39.610000
  0
LINE
 10
40.161000
 11
40.211000
 20
39.610000
 21
38.814000
  0
LINE
 10
40.211000
 11
40.211000
 20
38.814000
 21
-38.814000
  0
LINE
 10
40.211000
 11
40.161000
 20
-38.814000
 21
-39.610000
  0
LINE
 10
40.161000
 11
40.012000
 20
-39.610000
 21
-40.393000
  0
LINE
 10
40.012000
 11
39.765000
 20
-40.393000
 21
-41.152000
  0
LINE
 10
39.765000
 11
39.426000
 20
-41.152000
 21
-41.873000
  0
LINE
 10
39.426000
 11
38.998000
 20
-41.873000
 21
-42.546000
  0
LINE
 10
38.998000
 11
38.490000
 20
-42.546000
 21
-43.161000
  0
LINE
 10
38.490000
 11
37.909000
 20
-43.161000
 21
-43.707000
  0
LINE
 10
37.909000
 11
37.264000
 20
-43.707000
 21
-44.175000
  0
LINE
 10
37.264000
 11
36.565000
 20
-44.175000
 21
-44.560000
  0
LINE
 10
36.565000
 11
35.823000
 20
-44.560000
 21
-44.853000
  0
LINE
 10
35.823000
 11
35.051000
 20
-44.853000
 21
-45.052000
  0
LINE
 10
35.051000
 11
34.260000
 20
-45.052000
 21
-45.151000
  0
LINE
 10
34.260000
 11
33.861000
 20
-45.151000
 21
-45.151000
  0
LINE
 10
33.861000
 11
33.861000
 20
-45.151000
 21
-45.164000
  0
LINE
 10
33.861000
 11
-33.861000
 20
-45.164000
 21
-45.164000
  0
LINE
 10
-33.861000
 11
-33.861000
 20
-45.164000
 21
-45.151000
  0
LINE
 10
-33.861000
 11
-34.260000
 20
-45.151000
 21
-45.151000
  0
LINE
 10
-34.260000
 11
-35.051000
 20
-45.151000
 21
-45.052000
  0
LINE
 10
-35.051000
 11
-35.823000
 20
-45.052000
 21
-44.853000
  0
LINE
 10
-35.823000
 11
-36.565000
 20
-44.853000
 21
-44.560000
  0
LINE
 10
-36.565000
 11
-37.264000
 20
-44.560000
 21
-44.175000
  0
LINE
 10
-37.264000
 11
-37.909000
 20
-44.175000
 21
-43.707000
  0
LINE
 10
-37.909000
 11
-38.490000
 20
-43.707000
 21
-43.161000
  0
LINE
 10
-38.490000
 11
-38.998000
 20
-43.161000
 21
-42.546000
  0
LINE
 10
-38.998000
 11
-39.426000
 20
-42.546000
 21
-41.873000
  0
LINE
 10
-39.426000
 11
-39.765000
 20
-41.873000
 21
-41.152000
  0
LINE
 10
-39.765000
 11
-40.012000
 20
-41.152000
 21
-40.393000
  0
LINE
 10
-40.012000
 11
-40.161000
 20
-40.393000
 21
-39.610000
  0
LINE
 10
-40.161000
 11
-40.211000
 20
-39.610000
 21
-38.814000
  0
LINE
 10
10.224000
 11
10.224000
 20
-41.100000
 21
-38.100000
  0
LINE
 10
10.224000
 11
22.924000
 20
-38.100000
 21
-38.100000
  0
LINE
 10
22.924000
 11
22.924000
 20
-38.100000
 21
-41.100000
  0
LINE
 10
22.924000
 11
10.224000
 20
-41.100000
 21
-41.100000
  0
LINE
 10
10.224000
 11
10.224000
 20
38.100000
 21
41.100000
  0
LINE
 10
10.224000
 11
22.924000
 20
41.100000
 21
41.100000
  0
LINE
 10
22.924000
 11
22.924000
 20
41.100000
 21
38.100000
  0
LINE
 10
22.924000
 11
10.224000
 20
38.100000
 21
38.100000
  0
LINE
 10
27.229000
 11
27.240000
 20
-33.655000
 21
-33.470000
  0
LINE
 10
27.240000
 11
27.275000
 20
-33.470000
 21
-33.289000
  0
LINE
 10
27.275000
 11
27.332000
 20
-33.289000
 21
-33.113000
  0
LINE
 10
27.332000
 11
27.411000
 20
-33.113000
 21
-32.945000
  0
LINE
 10
27.411000
 11
27.510000
 20
-32.945000
 21
-32.789000
  0
LINE
 10
27.510000
 11
27.628000
 20
-32.789000
 21
-32.647000
  0
LINE
 10
27.628000
 11
27.763000
 20
-32.647000
 21
-32.520000
  0
LINE
 10
27.763000
 11
27.913000
 20
-32.520000
 21
-32.411000
  0
LINE
 10
27.913000
 11
28.075000
 20
-32.411000
 21
-32.322000
  0
LINE
 10
28.075000
 11
28.247000
 20
-32.322000
 21
-32.254000
  0
LINE
 10
28.247000
 11
28.426000
 20
-32.254000
 21
-32.208000
  0
LINE
 10
28.426000
 11
28.609000
 20
-32.208000
 21
-32.185000
  0
LINE
 10
28.609000
 11
28.795000
 20
-32.185000
 21
-32.185000
  0
LINE
 10
28.795000
 11
28.978000
 20
-32.185000
 21
-32.208000
  0
LINE
 10
28.978000
 11
29.157000
 20
-32.208000
 21
-32.254000
  0
LINE
 10
29.157000
 11
29.329000
 20
-32.254000
 21
-32.322000
  0
LINE
 10
29.329000
 11
29.491000
 20
-32.322000
 21
-32.411000
  0
LINE
 10
29.491000
 11
29.641000
 20
-32.411000
 21
-32.520000
  0
LINE
 10
29.641000
 11
29.776000
 20
-32.520000
 21
-32.647000
  0
LINE
 10
29.776000
 11
29.894000
 20
-32.647000
 21
-32.789000
  0
LINE
 10
29.894000
 11
29.993000
 20
-32.789000
 21
-32.945000
  0
LINE
 10
29.993000
 11
30.072000
 20
-32.945000
 21
-33.113000
  0
LINE
 10
30.072000
 11
30.129000
 20
-33.113000
 21
-33.289000
  0
LINE
 10
30.129000
 11
30.164000
 20
-33.289000
 21
-33.470000
  0
LINE
 10
30.164000
 11
30.175000
 20
-33.470000
 21
-33.655000
  0
LINE
 10
30.175000
 11
30.164000
 20
-33.655000
 21
-33.840000
  0
LINE
 10
30.164000
 11
30.129000
 20
-33.840000
 21
-34.021000
  0
LINE
 10
30.129000
 11
30.072000
 20
-34.021000
 21
-34.197000
  0
LINE
 10
30.072000
 11
29.993000
 20
-34.197000
 21
-34.365000
  0
LINE
 10
29.993000
 11
29.894000
 20
-34.365000
 21
-34.521000
  0
LINE
 10
29.894000
 11
29.776000
 20
-34.521000
 21
-34.663000
  0
LINE
 10
29.776000
 11
29.641000
 20
-34.663000
 21
-34.790000
  0
LINE
 10
29.641000
 11
29.491000
 20
-34.790000
 21
-34.899000
  0
LINE
 10
29.491000
 11
29.329000
 20
-34.899000
 21
-34.988000
  0
LINE
 10
29.329000
 11
29.157000
 20
-34.988000
 21
-35.056000
  0
LINE
 10
29.157000
 11
28.978000
 20
-35.056000
 21
-35.102000
  0
LINE
 10
28.978000
 11
28.795000
 20
-35.102000
 21
-35.125000
  0
LINE
 10
28.795000
 11
28.609000
 20
-35.125000
 21
-35.125000
  0
LINE
 10
28.609000
 11
28.426000
 20
-35.125000
 21
-35.102000
  0
LINE
 10
28.426000
 11
28.247000
 20
-35.102000
 21
-35.056000
  0
LINE
 10
28.247000
 11
28.075000
 20
-35.056000
 21
-34.988000
  0
LINE
 10
28.075000
 11
27.913000
 20
-34.988000
 21
-34.899000
  0
LINE
 10
27.913000
 11
27.763000
 20
-34.899000
 21
-34.790000
  0
LINE
 10
27.763000
 11
27.628000
 20
-34.790000
 21
-34.663000
  0
LINE
 10
27.628000
 11
27.510000
 20
-34.663000
 21
-34.521000
  0
LINE
 10
27.510000
 11
27.411000
 20
-34.521000
 21
-34.365000
  0
LINE
 10
27.411000
 11
27.332000
 20
-34.365000
 21
-34.197000
  0
LINE
 10
27.332000
 11
27.275000
 20
-34.197000
 21
-34.021000
  0
LINE
 10
27.275000
 11
27.240000
 20
-34.021000
 21
-33.840000
  0
LINE
 10
27.240000
 11
27.229000
 20
-33.840000
 21
-33.655000
  0
LINE
 10
27.229000
 11
27.240000
 20
33.655000
 21
33.840000
  0
LINE
 10
27.240000
 11
27.275000
 20
33.840000
 21
34.021000
  0
LINE
 10
27.275000
 11
27.332000
 20
34.021000
 21
34.197000
  0
LINE
 10
27.332000
 11
27.411000
 20
34.197000
 21
34.365000
  0
LINE
 10
27.411000
 11
27.510000
 20
34.365000
 21
34.521000
  0
LINE
 10
27.510000
 11
27.628000
 20
34.521000
 21
34.663000
  0
LINE
 10
27.628000
 11
27.763000
 20
34.663000
 21
34.790000
  0
LINE
 10
27.763000
 11
27.913000
 20
34.790000
 21
34.899000
  0
LINE
 10
27.913000
 11
28.075000
 20
34.899000
 21
34.988000
  0
LINE
 10
28.075000
 11
28.247000
 20
34.988000
 21
35.056000
  0
LINE
 10
28.247000
 11
28.426000
 20
35.056000
 21
35.102000
  0
LINE
 10
28.426000
 11
28.609000
 20
35.102000
 21
35.125000
  0
LINE
 10
28.609000
 11
28.795000
 20
35.125000
 21
35.125000
  0
LINE
 10
28.795000
 11
28.978000
 20
35.125000
 21
35.102000
  0
LINE
 10
28.978000
 11
29.157000
 20
35.102000
 21
35.056000
  0
LINE
 10
29.157000
 11
29.329000
 20
35.056000
 21
34.988000
  0
LINE
 10
29.329000
 11
29.491000
 20
34.988000
 21
34.899000
  0
LINE
 10
29.491000
 11
29.641000
 20
34.899000
 21
34.790000
  0
LINE
 10
29.641000
 11
29.776000
 20
34.790000
 21
34.663000
  0
LINE
 10
29.776000
 11
29.894000
 20
34.663000
 21
34.521000
  0
LINE
 10
29.894000
 11
29.993000
 20
34.521000
 21
34.365000
  0
LINE
 10
29.993000
 11
30.072000
 20
34.365000
 21
34.197000
  0
LINE
 10
30.072000
 11
30.129000
 20
34.197000
 21
34.021000
  0
LINE
 10
30.129000
 11
30.164000
 20
34.021000
 21
33.840000
  0
LINE
 10
30.164000
 11
30.175000
 20
33.840000
 21
33.655000
  0
LINE
 10
30.175000
 11
30.164000
 20
33.655000
 21
33.470000
  0
LINE
 10
30.164000
 11
30.129000
 20
33.470000
 21
33.289000
  0
LINE
 10
30.129000
 11
30.072000
 20
33.289000
 21
33.113000
  0
LINE
 10
30.072000
 11
29.993000
 20
33.113000
 21
32.945000
  0
LINE
 10
29.993000
 11
29.894000
 20
32.945000
 21
32.789000
  0
LINE
 10
29.894000
 11
29.776000
 20
32.789000
 21
32.647000
  0
LINE
 10
29.776000
 11
29.641000
 20
32.647000
 21
32.520000
  0
LINE
 10
29.641000
 11
29.491000
 20
32.520000
 21
32.411000
  0
LINE
 10
29.491000
 11
29.329000
 20
32.411000
 21
32.322000
  0
LINE
 10
29.329000
 11
29.157000
 20
32.322000
 21
32.254000
  0
LINE
 10
29.157000
 11
28.978000
 20
32.254000
 21
32.208000
  0
LINE
 10
28.978000
 11
28.795000
 20
32.208000
 21
32.185000
  0
LINE
 10
28.795000
 11
28.609000
 20
32.185000
 21
32.185000
  0
LINE
 10
28.609000
 11
28.426000
 20
32.185000
 21
32.208000
  0
LINE
 10
28.426000
 11
28.247000
 20
32.208000
 21
32.254000
  0
LINE
 10
28.247000
 11
28.075000
 20
32.254000
 21
32.322000
  0
LINE
 10
28.075000
 11
27.913000
 20
32.322000
 21
32.411000
  0
LINE
 10
27.913000
 11
27.763000
 20
32.411000
 21
32.520000
  0
LINE
 10
27.763000
 11
27.628000
 20
32.520000
 21
32.647000
  0
LINE
 10
27.628000
 11
27.510000
 20
32.647000
 21
32.789000
  0
LINE
 10
27.510000
 11
27.411000
 20
32.789000
 21
32.945000
  0
LINE
 10
27.411000
 11
27.332000
 20
32.945000
 21
33.113000
  0
LINE
 10
27.332000
 11
27.275000
 20
33.113000
 21
33.289000
  0
LINE
 10
27.275000
 11
27.240000
 20
33.289000
 21
33.470000
  0
LINE
 10
27.240000
 11
27.229000
 20
33.470000
 21
33.655000
  0
LINE
 10
33.147000
 11
33.147000
 20
-26.900000
 21
-14.200000
  0
LINE
 10
33.147000
 11
36.147000
 20
-14.200000
 21
-14.200000
  0
LINE
 10
36.147000
 11
36.147000
 20
-14.200000
 21
-26.900000
  0
LINE
 10
36.147000
 11
33.147000
 20
-26.900000
 21
-26.900000
  0
LINE
 10
33.147000
 11
33.147000
 20
14.200000
 21
26.900000
  0
LINE
 10
33.147000
 11
36.147000
 20
26.900000
 21
26.900000
  0
LINE
 10
36.147000
 11
36.147000
 20
26.900000
 21
14.200000
  0
LINE
 10
36.147000
 11
33.147000
 20
14.200000
 21
14.200000
  0
ENDSEC
  0
EOF
