  0
SECTION
  2
ENTITIES
  0
LINE
 10
-35.897000
 11
-35.897000
 20
-6.350000
 21
6.350000
  0
LINE
 10
-35.897000
 11
-33.147000
 20
6.350000
 21
6.350000
  0
LINE
 10
-33.147000
 11
-33.147000
 20
6.350000
 21
38.100000
  0
LINE
 10
-33.147000
 11
-22.924000
 20
38.100000
 21
38.100000
  0
LINE
 10
-22.924000
 11
-22.924000
 20
38.100000
 21
40.850000
  0
LINE
 10
-22.924000
 11
-10.224000
 20
40.850000
 21
40.850000
  0
LINE
 10
-10.224000
 11
-10.224000
 20
40.850000
 21
38.100000
  0
LINE
 10
-10.224000
 11
10.224000
 20
38.100000
 21
38.100000
  0
LINE
 10
10.224000
 11
10.224000
 20
38.100000
 21
40.850000
  0
LINE
 10
10.224000
 11
22.924000
 20
40.850000
 21
40.850000
  0
LINE
 10
22.924000
 11
22.924000
 20
40.850000
 21
38.100000
  0
LINE
 10
22.924000
 11
33.147000
 20
38.100000
 21
38.100000
  0
LINE
 10
33.147000
 11
33.147000
 20
38.100000
 21
6.350000
  0
LINE
 10
33.147000
 11
35.897000
 20
6.350000
 21
6.350000
  0
LINE
 10
35.897000
 11
35.897000
 20
6.350000
 21
-6.350000
  0
LINE
 10
35.897000
 11
33.147000
 20
-6.350000
 21
-6.350000
  0
LINE
 10
33.147000
 11
33.147000
 20
-6.350000
 21
-38.100000
  0
LINE
 10
33.147000
 11
22.924000
 20
-38.100000
 21
-38.100000
  0
LINE
 10
22.924000
 11
22.924000
 20
-38.100000
 21
-40.850000
  0
LINE
 10
22.924000
 11
10.224000
 20
-40.850000
 21
-40.850000
  0
LINE
 10
10.224000
 11
10.224000
 20
-40.850000
 21
-38.100000
  0
LINE
 10
10.224000
 11
-10.224000
 20
-38.100000
 21
-38.100000
  0
LINE
 10
-10.224000
 11
-10.224000
 20
-38.100000
 21
-40.850000
  0
LINE
 10
-10.224000
 11
-22.924000
 20
-40.850000
 21
-40.850000
  0
LINE
 10
-22.924000
 11
-22.924000
 20
-40.850000
 21
-38.100000
  0
LINE
 10
-22.924000
 11
-33.147000
 20
-38.100000
 21
-38.100000
  0
LINE
 10
-33.147000
 11
-33.147000
 20
-38.100000
 21
-6.350000
  0
LINE
 10
-33.147000
 11
-35.897000
 20
-6.350000
 21
-6.350000
  0
LINE
 10
5.402000
 11
5.402000
 20
-3.810000
 21
3.810000
  0
LINE
 10
5.402000
 11
8.402000
 20
3.810000
 21
3.810000
  0
LINE
 10
8.402000
 11
8.402000
 20
3.810000
 21
-3.810000
  0
LINE
 10
8.402000
 11
5.402000
 20
-3.810000
 21
-3.810000
  0
ENDSEC
  0
EOF
