  0
SECTION
  2
ENTITIES
  0
LINE
 10
-21.844000
 11
-21.832000
 20
-28.960000
 21
-28.769000
  0
LINE
 10
-21.832000
 11
-21.796000
 20
-28.769000
 21
-28.581000
  0
LINE
 10
-21.796000
 11
-21.737000
 20
-28.581000
 21
-28.399000
  0
LINE
 10
-21.737000
 11
-21.655000
 20
-28.399000
 21
-28.226000
  0
LINE
 10
-21.655000
 11
-21.553000
 20
-28.226000
 21
-28.064000
  0
LINE
 10
-21.553000
 11
-21.431000
 20
-28.064000
 21
-27.917000
  0
LINE
 10
-21.431000
 11
-21.291000
 20
-27.917000
 21
-27.786000
  0
LINE
 10
-21.291000
 11
-21.137000
 20
-27.786000
 21
-27.673000
  0
LINE
 10
-21.137000
 11
-20.969000
 20
-27.673000
 21
-27.581000
  0
LINE
 10
-20.969000
 11
-20.791000
 20
-27.581000
 21
-27.511000
  0
LINE
 10
-20.791000
 11
-20.606000
 20
-27.511000
 21
-27.463000
  0
LINE
 10
-20.606000
 11
-20.416000
 20
-27.463000
 21
-27.439000
  0
LINE
 10
-20.416000
 11
-20.224000
 20
-27.439000
 21
-27.439000
  0
LINE
 10
-20.224000
 11
-20.034000
 20
-27.439000
 21
-27.463000
  0
LINE
 10
-20.034000
 11
-19.849000
 20
-27.463000
 21
-27.511000
  0
LINE
 10
-19.849000
 11
-19.671000
 20
-27.511000
 21
-27.581000
  0
LINE
 10
-19.671000
 11
-19.503000
 20
-27.581000
 21
-27.673000
  0
LINE
 10
-19.503000
 11
-19.349000
 20
-27.673000
 21
-27.786000
  0
LINE
 10
-19.349000
 11
-19.209000
 20
-27.786000
 21
-27.917000
  0
LINE
 10
-19.209000
 11
-19.087000
 20
-27.917000
 21
-28.064000
  0
LINE
 10
-19.087000
 11
-18.985000
 20
-28.064000
 21
-28.226000
  0
LINE
 10
-18.985000
 11
-18.903000
 20
-28.226000
 21
-28.399000
  0
LINE
 10
-18.903000
 11
-18.844000
 20
-28.399000
 21
-28.581000
  0
LINE
 10
-18.844000
 11
-18.808000
 20
-28.581000
 21
-28.769000
  0
LINE
 10
-18.808000
 11
-18.796000
 20
-28.769000
 21
-28.960000
  0
LINE
 10
-18.796000
 11
-18.808000
 20
-28.960000
 21
-29.151000
  0
LINE
 10
-18.808000
 11
-18.844000
 20
-29.151000
 21
-29.339000
  0
LINE
 10
-18.844000
 11
-18.903000
 20
-29.339000
 21
-29.521000
  0
LINE
 10
-18.903000
 11
-18.985000
 20
-29.521000
 21
-29.694000
  0
LINE
 10
-18.985000
 11
-19.087000
 20
-29.694000
 21
-29.856000
  0
LINE
 10
-19.087000
 11
-19.209000
 20
-29.856000
 21
-30.003000
  0
LINE
 10
-19.209000
 11
-19.349000
 20
-30.003000
 21
-30.134000
  0
LINE
 10
-19.349000
 11
-19.503000
 20
-30.134000
 21
-30.247000
  0
LINE
 10
-19.503000
 11
-19.671000
 20
-30.247000
 21
-30.339000
  0
LINE
 10
-19.671000
 11
-19.849000
 20
-30.339000
 21
-30.409000
  0
LINE
 10
-19.849000
 11
-20.034000
 20
-30.409000
 21
-30.457000
  0
LINE
 10
-20.034000
 11
-20.224000
 20
-30.457000
 21
-30.481000
  0
LINE
 10
-20.224000
 11
-20.416000
 20
-30.481000
 21
-30.481000
  0
LINE
 10
-20.416000
 11
-20.606000
 20
-30.481000
 21
-30.457000
  0
LINE
 10
-20.606000
 11
-20.791000
 20
-30.457000
 21
-30.409000
  0
LINE
 10
-20.791000
 11
-20.969000
 20
-30.409000
 21
-30.339000
  0
LINE
 10
-20.969000
 11
-21.137000
 20
-30.339000
 21
-30.247000
  0
LINE
 10
-21.137000
 11
-21.291000
 20
-30.247000
 21
-30.134000
  0
LINE
 10
-21.291000
 11
-21.431000
 20
-30.134000
 21
-30.003000
  0
LINE
 10
-21.431000
 11
-21.553000
 20
-30.003000
 21
-29.856000
  0
LINE
 10
-21.553000
 11
-21.655000
 20
-29.856000
 21
-29.694000
  0
LINE
 10
-21.655000
 11
-21.737000
 20
-29.694000
 21
-29.521000
  0
LINE
 10
-21.737000
 11
-21.796000
 20
-29.521000
 21
-29.339000
  0
LINE
 10
-21.796000
 11
-21.832000
 20
-29.339000
 21
-29.151000
  0
LINE
 10
-21.832000
 11
-21.844000
 20
-29.151000
 21
-28.960000
  0
LINE
 10
-21.844000
 11
-21.832000
 20
-8.640000
 21
-8.449000
  0
LINE
 10
-21.832000
 11
-21.796000
 20
-8.449000
 21
-8.261000
  0
LINE
 10
-21.796000
 11
-21.737000
 20
-8.261000
 21
-8.079000
  0
LINE
 10
-21.737000
 11
-21.655000
 20
-8.079000
 21
-7.906000
  0
LINE
 10
-21.655000
 11
-21.553000
 20
-7.906000
 21
-7.744000
  0
LINE
 10
-21.553000
 11
-21.431000
 20
-7.744000
 21
-7.597000
  0
LINE
 10
-21.431000
 11
-21.291000
 20
-7.597000
 21
-7.466000
  0
LINE
 10
-21.291000
 11
-21.137000
 20
-7.466000
 21
-7.353000
  0
LINE
 10
-21.137000
 11
-20.969000
 20
-7.353000
 21
-7.261000
  0
LINE
 10
-20.969000
 11
-20.791000
 20
-7.261000
 21
-7.191000
  0
LINE
 10
-20.791000
 11
-20.606000
 20
-7.191000
 21
-7.143000
  0
LINE
 10
-20.606000
 11
-20.416000
 20
-7.143000
 21
-7.119000
  0
LINE
 10
-20.416000
 11
-20.224000
 20
-7.119000
 21
-7.119000
  0
LINE
 10
-20.224000
 11
-20.034000
 20
-7.119000
 21
-7.143000
  0
LINE
 10
-20.034000
 11
-19.849000
 20
-7.143000
 21
-7.191000
  0
LINE
 10
-19.849000
 11
-19.671000
 20
-7.191000
 21
-7.261000
  0
LINE
 10
-19.671000
 11
-19.503000
 20
-7.261000
 21
-7.353000
  0
LINE
 10
-19.503000
 11
-19.349000
 20
-7.353000
 21
-7.466000
  0
LINE
 10
-19.349000
 11
-19.209000
 20
-7.466000
 21
-7.597000
  0
LINE
 10
-19.209000
 11
-19.087000
 20
-7.597000
 21
-7.744000
  0
LINE
 10
-19.087000
 11
-18.985000
 20
-7.744000
 21
-7.906000
  0
LINE
 10
-18.985000
 11
-18.903000
 20
-7.906000
 21
-8.079000
  0
LINE
 10
-18.903000
 11
-18.844000
 20
-8.079000
 21
-8.261000
  0
LINE
 10
-18.844000
 11
-18.808000
 20
-8.261000
 21
-8.449000
  0
LINE
 10
-18.808000
 11
-18.796000
 20
-8.449000
 21
-8.640000
  0
LINE
 10
-18.796000
 11
-18.808000
 20
-8.640000
 21
-8.831000
  0
LINE
 10
-18.808000
 11
-18.844000
 20
-8.831000
 21
-9.019000
  0
LINE
 10
-18.844000
 11
-18.903000
 20
-9.019000
 21
-9.201000
  0
LINE
 10
-18.903000
 11
-18.985000
 20
-9.201000
 21
-9.374000
  0
LINE
 10
-18.985000
 11
-19.087000
 20
-9.374000
 21
-9.536000
  0
LINE
 10
-19.087000
 11
-19.209000
 20
-9.536000
 21
-9.683000
  0
LINE
 10
-19.209000
 11
-19.349000
 20
-9.683000
 21
-9.814000
  0
LINE
 10
-19.349000
 11
-19.503000
 20
-9.814000
 21
-9.927000
  0
LINE
 10
-19.503000
 11
-19.671000
 20
-9.927000
 21
-10.019000
  0
LINE
 10
-19.671000
 11
-19.849000
 20
-10.019000
 21
-10.089000
  0
LINE
 10
-19.849000
 11
-20.034000
 20
-10.089000
 21
-10.137000
  0
LINE
 10
-20.034000
 11
-20.224000
 20
-10.137000
 21
-10.161000
  0
LINE
 10
-20.224000
 11
-20.416000
 20
-10.161000
 21
-10.161000
  0
LINE
 10
-20.416000
 11
-20.606000
 20
-10.161000
 21
-10.137000
  0
LINE
 10
-20.606000
 11
-20.791000
 20
-10.137000
 21
-10.089000
  0
LINE
 10
-20.791000
 11
-20.969000
 20
-10.089000
 21
-10.019000
  0
LINE
 10
-20.969000
 11
-21.137000
 20
-10.019000
 21
-9.927000
  0
LINE
 10
-21.137000
 11
-21.291000
 20
-9.927000
 21
-9.814000
  0
LINE
 10
-21.291000
 11
-21.431000
 20
-9.814000
 21
-9.683000
  0
LINE
 10
-21.431000
 11
-21.553000
 20
-9.683000
 21
-9.536000
  0
LINE
 10
-21.553000
 11
-21.655000
 20
-9.536000
 21
-9.374000
  0
LINE
 10
-21.655000
 11
-21.737000
 20
-9.374000
 21
-9.201000
  0
LINE
 10
-21.737000
 11
-21.796000
 20
-9.201000
 21
-9.019000
  0
LINE
 10
-21.796000
 11
-21.832000
 20
-9.019000
 21
-8.831000
  0
LINE
 10
-21.832000
 11
-21.844000
 20
-8.831000
 21
-8.640000
  0
LINE
 10
18.796000
 11
18.808000
 20
-28.960000
 21
-28.769000
  0
LINE
 10
18.808000
 11
18.844000
 20
-28.769000
 21
-28.581000
  0
LINE
 10
18.844000
 11
18.903000
 20
-28.581000
 21
-28.399000
  0
LINE
 10
18.903000
 11
18.985000
 20
-28.399000
 21
-28.226000
  0
LINE
 10
18.985000
 11
19.087000
 20
-28.226000
 21
-28.064000
  0
LINE
 10
19.087000
 11
19.209000
 20
-28.064000
 21
-27.917000
  0
LINE
 10
19.209000
 11
19.349000
 20
-27.917000
 21
-27.786000
  0
LINE
 10
19.349000
 11
19.503000
 20
-27.786000
 21
-27.673000
  0
LINE
 10
19.503000
 11
19.671000
 20
-27.673000
 21
-27.581000
  0
LINE
 10
19.671000
 11
19.849000
 20
-27.581000
 21
-27.511000
  0
LINE
 10
19.849000
 11
20.034000
 20
-27.511000
 21
-27.463000
  0
LINE
 10
20.034000
 11
20.224000
 20
-27.463000
 21
-27.439000
  0
LINE
 10
20.224000
 11
20.416000
 20
-27.439000
 21
-27.439000
  0
LINE
 10
20.416000
 11
20.606000
 20
-27.439000
 21
-27.463000
  0
LINE
 10
20.606000
 11
20.791000
 20
-27.463000
 21
-27.511000
  0
LINE
 10
20.791000
 11
20.969000
 20
-27.511000
 21
-27.581000
  0
LINE
 10
20.969000
 11
21.137000
 20
-27.581000
 21
-27.673000
  0
LINE
 10
21.137000
 11
21.291000
 20
-27.673000
 21
-27.786000
  0
LINE
 10
21.291000
 11
21.431000
 20
-27.786000
 21
-27.917000
  0
LINE
 10
21.431000
 11
21.553000
 20
-27.917000
 21
-28.064000
  0
LINE
 10
21.553000
 11
21.655000
 20
-28.064000
 21
-28.226000
  0
LINE
 10
21.655000
 11
21.737000
 20
-28.226000
 21
-28.399000
  0
LINE
 10
21.737000
 11
21.796000
 20
-28.399000
 21
-28.581000
  0
LINE
 10
21.796000
 11
21.832000
 20
-28.581000
 21
-28.769000
  0
LINE
 10
21.832000
 11
21.844000
 20
-28.769000
 21
-28.960000
  0
LINE
 10
21.844000
 11
21.832000
 20
-28.960000
 21
-29.151000
  0
LINE
 10
21.832000
 11
21.796000
 20
-29.151000
 21
-29.339000
  0
LINE
 10
21.796000
 11
21.737000
 20
-29.339000
 21
-29.521000
  0
LINE
 10
21.737000
 11
21.655000
 20
-29.521000
 21
-29.694000
  0
LINE
 10
21.655000
 11
21.553000
 20
-29.694000
 21
-29.856000
  0
LINE
 10
21.553000
 11
21.431000
 20
-29.856000
 21
-30.003000
  0
LINE
 10
21.431000
 11
21.291000
 20
-30.003000
 21
-30.134000
  0
LINE
 10
21.291000
 11
21.137000
 20
-30.134000
 21
-30.247000
  0
LINE
 10
21.137000
 11
20.969000
 20
-30.247000
 21
-30.339000
  0
LINE
 10
20.969000
 11
20.791000
 20
-30.339000
 21
-30.409000
  0
LINE
 10
20.791000
 11
20.606000
 20
-30.409000
 21
-30.457000
  0
LINE
 10
20.606000
 11
20.416000
 20
-30.457000
 21
-30.481000
  0
LINE
 10
20.416000
 11
20.224000
 20
-30.481000
 21
-30.481000
  0
LINE
 10
20.224000
 11
20.034000
 20
-30.481000
 21
-30.457000
  0
LINE
 10
20.034000
 11
19.849000
 20
-30.457000
 21
-30.409000
  0
LINE
 10
19.849000
 11
19.671000
 20
-30.409000
 21
-30.339000
  0
LINE
 10
19.671000
 11
19.503000
 20
-30.339000
 21
-30.247000
  0
LINE
 10
19.503000
 11
19.349000
 20
-30.247000
 21
-30.134000
  0
LINE
 10
19.349000
 11
19.209000
 20
-30.134000
 21
-30.003000
  0
LINE
 10
19.209000
 11
19.087000
 20
-30.003000
 21
-29.856000
  0
LINE
 10
19.087000
 11
18.985000
 20
-29.856000
 21
-29.694000
  0
LINE
 10
18.985000
 11
18.903000
 20
-29.694000
 21
-29.521000
  0
LINE
 10
18.903000
 11
18.844000
 20
-29.521000
 21
-29.339000
  0
LINE
 10
18.844000
 11
18.808000
 20
-29.339000
 21
-29.151000
  0
LINE
 10
18.808000
 11
18.796000
 20
-29.151000
 21
-28.960000
  0
LINE
 10
18.796000
 11
18.808000
 20
-8.640000
 21
-8.449000
  0
LINE
 10
18.808000
 11
18.844000
 20
-8.449000
 21
-8.261000
  0
LINE
 10
18.844000
 11
18.903000
 20
-8.261000
 21
-8.079000
  0
LINE
 10
18.903000
 11
18.985000
 20
-8.079000
 21
-7.906000
  0
LINE
 10
18.985000
 11
19.087000
 20
-7.906000
 21
-7.744000
  0
LINE
 10
19.087000
 11
19.209000
 20
-7.744000
 21
-7.597000
  0
LINE
 10
19.209000
 11
19.349000
 20
-7.597000
 21
-7.466000
  0
LINE
 10
19.349000
 11
19.503000
 20
-7.466000
 21
-7.353000
  0
LINE
 10
19.503000
 11
19.671000
 20
-7.353000
 21
-7.261000
  0
LINE
 10
19.671000
 11
19.849000
 20
-7.261000
 21
-7.191000
  0
LINE
 10
19.849000
 11
20.034000
 20
-7.191000
 21
-7.143000
  0
LINE
 10
20.034000
 11
20.224000
 20
-7.143000
 21
-7.119000
  0
LINE
 10
20.224000
 11
20.416000
 20
-7.119000
 21
-7.119000
  0
LINE
 10
20.416000
 11
20.606000
 20
-7.119000
 21
-7.143000
  0
LINE
 10
20.606000
 11
20.791000
 20
-7.143000
 21
-7.191000
  0
LINE
 10
20.791000
 11
20.969000
 20
-7.191000
 21
-7.261000
  0
LINE
 10
20.969000
 11
21.137000
 20
-7.261000
 21
-7.353000
  0
LINE
 10
21.137000
 11
21.291000
 20
-7.353000
 21
-7.466000
  0
LINE
 10
21.291000
 11
21.431000
 20
-7.466000
 21
-7.597000
  0
LINE
 10
21.431000
 11
21.553000
 20
-7.597000
 21
-7.744000
  0
LINE
 10
21.553000
 11
21.655000
 20
-7.744000
 21
-7.906000
  0
LINE
 10
21.655000
 11
21.737000
 20
-7.906000
 21
-8.079000
  0
LINE
 10
21.737000
 11
21.796000
 20
-8.079000
 21
-8.261000
  0
LINE
 10
21.796000
 11
21.832000
 20
-8.261000
 21
-8.449000
  0
LINE
 10
21.832000
 11
21.844000
 20
-8.449000
 21
-8.640000
  0
LINE
 10
21.844000
 11
21.832000
 20
-8.640000
 21
-8.831000
  0
LINE
 10
21.832000
 11
21.796000
 20
-8.831000
 21
-9.019000
  0
LINE
 10
21.796000
 11
21.737000
 20
-9.019000
 21
-9.201000
  0
LINE
 10
21.737000
 11
21.655000
 20
-9.201000
 21
-9.374000
  0
LINE
 10
21.655000
 11
21.553000
 20
-9.374000
 21
-9.536000
  0
LINE
 10
21.553000
 11
21.431000
 20
-9.536000
 21
-9.683000
  0
LINE
 10
21.431000
 11
21.291000
 20
-9.683000
 21
-9.814000
  0
LINE
 10
21.291000
 11
21.137000
 20
-9.814000
 21
-9.927000
  0
LINE
 10
21.137000
 11
20.969000
 20
-9.927000
 21
-10.019000
  0
LINE
 10
20.969000
 11
20.791000
 20
-10.019000
 21
-10.089000
  0
LINE
 10
20.791000
 11
20.606000
 20
-10.089000
 21
-10.137000
  0
LINE
 10
20.606000
 11
20.416000
 20
-10.137000
 21
-10.161000
  0
LINE
 10
20.416000
 11
20.224000
 20
-10.161000
 21
-10.161000
  0
LINE
 10
20.224000
 11
20.034000
 20
-10.161000
 21
-10.137000
  0
LINE
 10
20.034000
 11
19.849000
 20
-10.137000
 21
-10.089000
  0
LINE
 10
19.849000
 11
19.671000
 20
-10.089000
 21
-10.019000
  0
LINE
 10
19.671000
 11
19.503000
 20
-10.019000
 21
-9.927000
  0
LINE
 10
19.503000
 11
19.349000
 20
-9.927000
 21
-9.814000
  0
LINE
 10
19.349000
 11
19.209000
 20
-9.814000
 21
-9.683000
  0
LINE
 10
19.209000
 11
19.087000
 20
-9.683000
 21
-9.536000
  0
LINE
 10
19.087000
 11
18.985000
 20
-9.536000
 21
-9.374000
  0
LINE
 10
18.985000
 11
18.903000
 20
-9.374000
 21
-9.201000
  0
LINE
 10
18.903000
 11
18.844000
 20
-9.201000
 21
-9.019000
  0
LINE
 10
18.844000
 11
18.808000
 20
-9.019000
 21
-8.831000
  0
LINE
 10
18.808000
 11
18.796000
 20
-8.831000
 21
-8.640000
  0
LINE
 10
-41.100000
 11
-41.100000
 20
-38.100000
 21
-6.350000
  0
LINE
 10
-41.100000
 11
-38.100000
 20
-6.350000
 21
-6.350000
  0
LINE
 10
-38.100000
 11
-38.100000
 20
-6.350000
 21
6.350000
  0
LINE
 10
-38.100000
 11
-41.100000
 20
6.350000
 21
6.350000
  0
LINE
 10
-41.100000
 11
-41.100000
 20
6.350000
 21
38.100000
  0
LINE
 10
-41.100000
 11
-26.900000
 20
38.100000
 21
38.100000
  0
LINE
 10
-26.900000
 11
-26.900000
 20
38.100000
 21
40.850000
  0
LINE
 10
-26.900000
 11
-14.200000
 20
40.850000
 21
40.850000
  0
LINE
 10
-14.200000
 11
-14.200000
 20
40.850000
 21
38.100000
  0
LINE
 10
-14.200000
 11
14.200000
 20
38.100000
 21
38.100000
  0
LINE
 10
14.200000
 11
14.200000
 20
38.100000
 21
40.850000
  0
LINE
 10
14.200000
 11
26.900000
 20
40.850000
 21
40.850000
  0
LINE
 10
26.900000
 11
26.900000
 20
40.850000
 21
38.100000
  0
LINE
 10
26.900000
 11
41.100000
 20
38.100000
 21
38.100000
  0
LINE
 10
41.100000
 11
41.100000
 20
38.100000
 21
6.350000
  0
LINE
 10
41.100000
 11
38.100000
 20
6.350000
 21
6.350000
  0
LINE
 10
38.100000
 11
38.100000
 20
6.350000
 21
-6.350000
  0
LINE
 10
38.100000
 11
41.100000
 20
-6.350000
 21
-6.350000
  0
LINE
 10
41.100000
 11
41.100000
 20
-6.350000
 21
-38.100000
  0
LINE
 10
41.100000
 11
26.900000
 20
-38.100000
 21
-38.100000
  0
LINE
 10
26.900000
 11
26.900000
 20
-38.100000
 21
-40.850000
  0
LINE
 10
26.900000
 11
14.200000
 20
-40.850000
 21
-40.850000
  0
LINE
 10
14.200000
 11
14.200000
 20
-40.850000
 21
-38.100000
  0
LINE
 10
14.200000
 11
-14.200000
 20
-38.100000
 21
-38.100000
  0
LINE
 10
-14.200000
 11
-14.200000
 20
-38.100000
 21
-40.850000
  0
LINE
 10
-14.200000
 11
-26.900000
 20
-40.850000
 21
-40.850000
  0
LINE
 10
-26.900000
 11
-26.900000
 20
-40.850000
 21
-38.100000
  0
LINE
 10
-26.900000
 11
-41.100000
 20
-38.100000
 21
-38.100000
  0
ENDSEC
  0
EOF
