G04 (created by PCBNEW (2013-mar-13)-testing) date Wed 12 Jun 2013 03:24:25 PM PDT*
%MOIN*%
G04 Gerber Fmt 3.4, Leading zero omitted, Abs format*
%FSLAX34Y34*%
G01*
G70*
G90*
G04 APERTURE LIST*
%ADD10C,0.005906*%
%ADD11R,0.060000X0.060000*%
%ADD12C,0.060000*%
%ADD13R,0.070000X0.070000*%
%ADD14C,0.070000*%
%ADD15O,0.060000X0.100000*%
%ADD16C,0.155000*%
%ADD17C,0.055000*%
%ADD18C,0.020000*%
G04 APERTURE END LIST*
G54D10*
G54D11*
X38500Y-31600D03*
G54D12*
X38500Y-30600D03*
X38500Y-29600D03*
G54D11*
X46500Y-29600D03*
G54D12*
X46500Y-30600D03*
G54D13*
X28600Y-31100D03*
G54D14*
X29600Y-31100D03*
X28600Y-32100D03*
X29600Y-32100D03*
X28600Y-33100D03*
X29600Y-33100D03*
X28600Y-34100D03*
X29600Y-34100D03*
X28600Y-35100D03*
X29600Y-35100D03*
G54D15*
X47575Y-45425D03*
X46575Y-45425D03*
X45575Y-45425D03*
X42575Y-45425D03*
X43575Y-45425D03*
X44575Y-45425D03*
X40575Y-45425D03*
X39575Y-45425D03*
X38575Y-45425D03*
X36575Y-45425D03*
X35575Y-45425D03*
X47575Y-26425D03*
X46575Y-26425D03*
X45575Y-26425D03*
X44575Y-26425D03*
X43575Y-26425D03*
X42575Y-26425D03*
X41575Y-26425D03*
X40575Y-26425D03*
X38975Y-26425D03*
X37975Y-26425D03*
X36975Y-26425D03*
X35975Y-26425D03*
X34975Y-26425D03*
X33975Y-26425D03*
X32975Y-26425D03*
X31975Y-26425D03*
X37575Y-45425D03*
G54D16*
X48575Y-43425D03*
X48575Y-32425D03*
X28575Y-26425D03*
X28075Y-45425D03*
G54D11*
X34500Y-32600D03*
G54D12*
X34500Y-31600D03*
X34500Y-30600D03*
X34500Y-29600D03*
G54D17*
X36300Y-35600D03*
X37300Y-35600D03*
G54D11*
X42500Y-29600D03*
G54D12*
X42500Y-30600D03*
X42500Y-31600D03*
G54D18*
X38500Y-31600D02*
X37999Y-31600D01*
X37575Y-45425D02*
X37575Y-44725D01*
X35820Y-42970D02*
X35820Y-33100D01*
X37575Y-44725D02*
X35820Y-42970D01*
X36499Y-33100D02*
X35820Y-33100D01*
X37999Y-31600D02*
X36499Y-33100D01*
X29165Y-30534D02*
X28600Y-31100D01*
X31007Y-30534D02*
X29165Y-30534D01*
X33573Y-33100D02*
X31007Y-30534D01*
X35820Y-33100D02*
X33573Y-33100D01*
X43575Y-35675D02*
X38500Y-30600D01*
X43575Y-45425D02*
X43575Y-35675D01*
X27748Y-32248D02*
X28600Y-33100D01*
X27748Y-29739D02*
X27748Y-32248D01*
X31762Y-25725D02*
X27748Y-29739D01*
X43575Y-25725D02*
X31762Y-25725D01*
X43575Y-26425D02*
X43575Y-25725D01*
X35006Y-27156D02*
X34975Y-27125D01*
X35006Y-30093D02*
X35006Y-27156D01*
X34500Y-30600D02*
X35006Y-30093D01*
X34975Y-26425D02*
X34975Y-27125D01*
X33975Y-29075D02*
X33975Y-26425D01*
X34500Y-29600D02*
X33975Y-29075D01*
X40575Y-39875D02*
X40575Y-45425D01*
X36300Y-35600D02*
X40575Y-39875D01*
X28049Y-31549D02*
X28600Y-32100D01*
X28049Y-30665D02*
X28049Y-31549D01*
X28480Y-30234D02*
X28049Y-30665D01*
X33134Y-30234D02*
X28480Y-30234D01*
X34500Y-31600D02*
X33134Y-30234D01*
X40500Y-31600D02*
X42500Y-31600D01*
X38500Y-29600D02*
X40500Y-31600D01*
X45500Y-31600D02*
X46500Y-30600D01*
X42500Y-31600D02*
X45500Y-31600D01*
M02*
