G04 (created by PCBNEW (2013-mar-13)-testing) date Wed 12 Jun 2013 03:24:25 PM PDT*
%MOIN*%
G04 Gerber Fmt 3.4, Leading zero omitted, Abs format*
%FSLAX34Y34*%
G01*
G70*
G90*
G04 APERTURE LIST*
%ADD10C,0.005906*%
%ADD11R,0.060000X0.060000*%
%ADD12C,0.060000*%
%ADD13R,0.070000X0.070000*%
%ADD14C,0.070000*%
%ADD15O,0.060000X0.100000*%
%ADD16C,0.155000*%
%ADD17C,0.055000*%
%ADD18C,0.020000*%
G04 APERTURE END LIST*
G54D10*
G54D11*
X38500Y-31600D03*
G54D12*
X38500Y-30600D03*
X38500Y-29600D03*
G54D11*
X46500Y-29600D03*
G54D12*
X46500Y-30600D03*
G54D13*
X28600Y-31100D03*
G54D14*
X29600Y-31100D03*
X28600Y-32100D03*
X29600Y-32100D03*
X28600Y-33100D03*
X29600Y-33100D03*
X28600Y-34100D03*
X29600Y-34100D03*
X28600Y-35100D03*
X29600Y-35100D03*
G54D15*
X47575Y-45425D03*
X46575Y-45425D03*
X45575Y-45425D03*
X42575Y-45425D03*
X43575Y-45425D03*
X44575Y-45425D03*
X40575Y-45425D03*
X39575Y-45425D03*
X38575Y-45425D03*
X36575Y-45425D03*
X35575Y-45425D03*
X47575Y-26425D03*
X46575Y-26425D03*
X45575Y-26425D03*
X44575Y-26425D03*
X43575Y-26425D03*
X42575Y-26425D03*
X41575Y-26425D03*
X40575Y-26425D03*
X38975Y-26425D03*
X37975Y-26425D03*
X36975Y-26425D03*
X35975Y-26425D03*
X34975Y-26425D03*
X33975Y-26425D03*
X32975Y-26425D03*
X31975Y-26425D03*
X37575Y-45425D03*
G54D16*
X48575Y-43425D03*
X48575Y-32425D03*
X28575Y-26425D03*
X28075Y-45425D03*
G54D11*
X34500Y-32600D03*
G54D12*
X34500Y-31600D03*
X34500Y-30600D03*
X34500Y-29600D03*
G54D17*
X36300Y-35600D03*
X37300Y-35600D03*
G54D11*
X42500Y-29600D03*
G54D12*
X42500Y-30600D03*
X42500Y-31600D03*
G54D18*
X46500Y-28050D02*
X46500Y-29600D01*
X45575Y-27125D02*
X46500Y-28050D01*
X45575Y-26425D02*
X45575Y-27125D01*
X38975Y-26425D02*
X38975Y-27125D01*
X32378Y-31321D02*
X29600Y-34100D01*
X32378Y-30160D02*
X32378Y-31321D01*
X34272Y-28266D02*
X32378Y-30160D01*
X37833Y-28266D02*
X34272Y-28266D01*
X38975Y-27125D02*
X37833Y-28266D01*
X41997Y-31102D02*
X42500Y-30600D01*
X41997Y-44147D02*
X41997Y-31102D01*
X42575Y-44725D02*
X41997Y-44147D01*
X42575Y-45425D02*
X42575Y-44725D01*
X44474Y-27125D02*
X42500Y-29099D01*
X44575Y-27125D02*
X44474Y-27125D01*
X42500Y-29600D02*
X42500Y-29099D01*
X44575Y-26425D02*
X44575Y-27125D01*
X28018Y-33518D02*
X28600Y-34100D01*
X28018Y-29460D02*
X28018Y-33518D01*
X31753Y-25725D02*
X28018Y-29460D01*
X42575Y-25725D02*
X31753Y-25725D01*
X42575Y-26425D02*
X42575Y-25725D01*
X29177Y-35677D02*
X28600Y-35100D01*
X29828Y-35677D02*
X29177Y-35677D01*
X33724Y-31781D02*
X29828Y-35677D01*
X33724Y-29663D02*
X33724Y-31781D01*
X34510Y-28877D02*
X33724Y-29663D01*
X39823Y-28877D02*
X34510Y-28877D01*
X41575Y-27125D02*
X39823Y-28877D01*
X41575Y-26425D02*
X41575Y-27125D01*
X33334Y-31365D02*
X29600Y-35100D01*
X33334Y-29629D02*
X33334Y-31365D01*
X34396Y-28566D02*
X33334Y-29629D01*
X39133Y-28566D02*
X34396Y-28566D01*
X40575Y-27125D02*
X39133Y-28566D01*
X40575Y-26425D02*
X40575Y-27125D01*
X37975Y-26425D02*
X37975Y-27125D01*
X32078Y-30621D02*
X29600Y-33100D01*
X32078Y-30036D02*
X32078Y-30621D01*
X34148Y-27966D02*
X32078Y-30036D01*
X37134Y-27966D02*
X34148Y-27966D01*
X37975Y-27125D02*
X37134Y-27966D01*
X36975Y-26425D02*
X36975Y-27125D01*
X29600Y-32090D02*
X29600Y-32100D01*
X34030Y-27659D02*
X29600Y-32090D01*
X36441Y-27659D02*
X34030Y-27659D01*
X36975Y-27125D02*
X36441Y-27659D01*
X33574Y-27125D02*
X29600Y-31100D01*
X35975Y-27125D02*
X33574Y-27125D01*
X35975Y-26425D02*
X35975Y-27125D01*
X36300Y-34900D02*
X34500Y-33100D01*
X36300Y-35600D02*
X36300Y-34900D01*
X34500Y-32600D02*
X34500Y-33100D01*
X36500Y-31600D02*
X34500Y-31600D01*
X36500Y-31599D02*
X38500Y-29600D01*
X36500Y-31600D02*
X36500Y-31599D01*
X37300Y-32399D02*
X37300Y-35600D01*
X36500Y-31600D02*
X37300Y-32399D01*
X37300Y-43450D02*
X38575Y-44725D01*
X37300Y-35600D02*
X37300Y-43450D01*
X38575Y-45425D02*
X38575Y-44725D01*
M02*
