M48
;DRILL file {Pcbnew (2013-mar-13)-testing} date Wed 12 Jun 2013 03:24:28 PM PDT
;FORMAT={2:4/ absolute / inch / suppress trailing zeros}
FMAT,2
INCH,LZ
T1C0.032
T2C0.040
T3C0.125
%
G90
G05
M72
T1
X031975Y-026425
X032975Y-026425
X033975Y-026425
X034975Y-026425
X035575Y-045425
X035975Y-026425
X0363Y-0356
X036575Y-045425
X036975Y-026425
X0373Y-0356
X037575Y-045425
X037975Y-026425
X038575Y-045425
X038975Y-026425
X039575Y-045425
X040575Y-026425
X040575Y-045425
X041575Y-026425
X042575Y-026425
X042575Y-045425
X043575Y-026425
X043575Y-045425
X044575Y-026425
X044575Y-045425
X045575Y-026425
X045575Y-045425
X046575Y-026425
X046575Y-045425
X047575Y-026425
X047575Y-045425
T2
X0286Y-0311
X0286Y-0321
X0286Y-0331
X0286Y-0341
X0286Y-0351
X0296Y-0311
X0296Y-0321
X0296Y-0331
X0296Y-0341
X0296Y-0351
X0345Y-0296
X0345Y-0306
X0345Y-0316
X0345Y-0326
X0385Y-0296
X0385Y-0306
X0385Y-0316
X0425Y-0296
X0425Y-0306
X0425Y-0316
X0465Y-0296
X0465Y-0306
T3
X028075Y-045425
X028575Y-026425
X048575Y-032425
X048575Y-043425
T0
M30
