  0
SECTION
  2
ENTITIES
  0
LINE
 10
-14.000000
 11
-14.000000
 20
-30.000000
 21
30.000000
  0
LINE
 10
-14.000000
 11
14.000000
 20
30.000000
 21
30.000000
  0
LINE
 10
14.000000
 11
14.000000
 20
30.000000
 21
4.395000
  0
LINE
 10
14.000000
 11
11.402000
 20
4.395000
 21
4.395000
  0
LINE
 10
11.402000
 11
10.890000
 20
4.395000
 21
5.014000
  0
LINE
 10
10.890000
 11
10.219000
 20
5.014000
 21
5.644000
  0
LINE
 10
10.219000
 11
9.475000
 20
5.644000
 21
6.185000
  0
LINE
 10
9.475000
 11
8.669000
 20
6.185000
 21
6.628000
  0
LINE
 10
8.669000
 11
7.814000
 20
6.628000
 21
6.966000
  0
LINE
 10
7.814000
 11
6.923000
 20
6.966000
 21
7.195000
  0
LINE
 10
6.923000
 11
6.010000
 20
7.195000
 21
7.311000
  0
LINE
 10
6.010000
 11
5.090000
 20
7.311000
 21
7.311000
  0
LINE
 10
5.090000
 11
4.177000
 20
7.311000
 21
7.195000
  0
LINE
 10
4.177000
 11
3.286000
 20
7.195000
 21
6.966000
  0
LINE
 10
3.286000
 11
2.431000
 20
6.966000
 21
6.628000
  0
LINE
 10
2.431000
 11
1.625000
 20
6.628000
 21
6.185000
  0
LINE
 10
1.625000
 11
0.881000
 20
6.185000
 21
5.644000
  0
LINE
 10
0.881000
 11
0.210000
 20
5.644000
 21
5.014000
  0
LINE
 10
0.210000
 11
-0.376000
 20
5.014000
 21
4.306000
  0
LINE
 10
-0.376000
 11
-0.869000
 20
4.306000
 21
3.529000
  0
LINE
 10
-0.869000
 11
-1.261000
 20
3.529000
 21
2.697000
  0
LINE
 10
-1.261000
 11
-1.545000
 20
2.697000
 21
1.822000
  0
LINE
 10
-1.545000
 11
-1.717000
 20
1.822000
 21
0.918000
  0
LINE
 10
-1.717000
 11
-1.775000
 20
0.918000
 21
0.000000
  0
LINE
 10
-1.775000
 11
-1.717000
 20
0.000000
 21
-0.918000
  0
LINE
 10
-1.717000
 11
-1.545000
 20
-0.918000
 21
-1.822000
  0
LINE
 10
-1.545000
 11
-1.261000
 20
-1.822000
 21
-2.697000
  0
LINE
 10
-1.261000
 11
-0.869000
 20
-2.697000
 21
-3.529000
  0
LINE
 10
-0.869000
 11
-0.376000
 20
-3.529000
 21
-4.306000
  0
LINE
 10
-0.376000
 11
0.210000
 20
-4.306000
 21
-5.014000
  0
LINE
 10
0.210000
 11
0.881000
 20
-5.014000
 21
-5.644000
  0
LINE
 10
0.881000
 11
1.625000
 20
-5.644000
 21
-6.185000
  0
LINE
 10
1.625000
 11
2.431000
 20
-6.185000
 21
-6.628000
  0
LINE
 10
2.431000
 11
3.286000
 20
-6.628000
 21
-6.966000
  0
LINE
 10
3.286000
 11
4.177000
 20
-6.966000
 21
-7.195000
  0
LINE
 10
4.177000
 11
5.090000
 20
-7.195000
 21
-7.311000
  0
LINE
 10
5.090000
 11
6.010000
 20
-7.311000
 21
-7.311000
  0
LINE
 10
6.010000
 11
6.923000
 20
-7.311000
 21
-7.195000
  0
LINE
 10
6.923000
 11
7.814000
 20
-7.195000
 21
-6.966000
  0
LINE
 10
7.814000
 11
8.669000
 20
-6.966000
 21
-6.628000
  0
LINE
 10
8.669000
 11
9.475000
 20
-6.628000
 21
-6.185000
  0
LINE
 10
9.475000
 11
10.219000
 20
-6.185000
 21
-5.644000
  0
LINE
 10
10.219000
 11
10.890000
 20
-5.644000
 21
-5.014000
  0
LINE
 10
10.890000
 11
11.402000
 20
-5.014000
 21
-4.395000
  0
LINE
 10
11.402000
 11
14.000000
 20
-4.395000
 21
-4.395000
  0
LINE
 10
14.000000
 11
14.000000
 20
-4.395000
 21
-30.000000
  0
LINE
 10
14.000000
 11
-14.000000
 20
-30.000000
 21
-30.000000
  0
LINE
 10
-1.473000
 11
-1.462000
 20
-24.825000
 21
-24.640000
  0
LINE
 10
-1.462000
 11
-1.427000
 20
-24.640000
 21
-24.459000
  0
LINE
 10
-1.427000
 11
-1.370000
 20
-24.459000
 21
-24.283000
  0
LINE
 10
-1.370000
 11
-1.291000
 20
-24.283000
 21
-24.115000
  0
LINE
 10
-1.291000
 11
-1.192000
 20
-24.115000
 21
-23.959000
  0
LINE
 10
-1.192000
 11
-1.074000
 20
-23.959000
 21
-23.817000
  0
LINE
 10
-1.074000
 11
-0.939000
 20
-23.817000
 21
-23.690000
  0
LINE
 10
-0.939000
 11
-0.789000
 20
-23.690000
 21
-23.581000
  0
LINE
 10
-0.789000
 11
-0.627000
 20
-23.581000
 21
-23.492000
  0
LINE
 10
-0.627000
 11
-0.455000
 20
-23.492000
 21
-23.424000
  0
LINE
 10
-0.455000
 11
-0.276000
 20
-23.424000
 21
-23.378000
  0
LINE
 10
-0.276000
 11
-0.093000
 20
-23.378000
 21
-23.355000
  0
LINE
 10
-0.093000
 11
0.093000
 20
-23.355000
 21
-23.355000
  0
LINE
 10
0.093000
 11
0.276000
 20
-23.355000
 21
-23.378000
  0
LINE
 10
0.276000
 11
0.455000
 20
-23.378000
 21
-23.424000
  0
LINE
 10
0.455000
 11
0.627000
 20
-23.424000
 21
-23.492000
  0
LINE
 10
0.627000
 11
0.789000
 20
-23.492000
 21
-23.581000
  0
LINE
 10
0.789000
 11
0.939000
 20
-23.581000
 21
-23.690000
  0
LINE
 10
0.939000
 11
1.074000
 20
-23.690000
 21
-23.817000
  0
LINE
 10
1.074000
 11
1.192000
 20
-23.817000
 21
-23.959000
  0
LINE
 10
1.192000
 11
1.291000
 20
-23.959000
 21
-24.115000
  0
LINE
 10
1.291000
 11
1.370000
 20
-24.115000
 21
-24.283000
  0
LINE
 10
1.370000
 11
1.427000
 20
-24.283000
 21
-24.459000
  0
LINE
 10
1.427000
 11
1.462000
 20
-24.459000
 21
-24.640000
  0
LINE
 10
1.462000
 11
1.473000
 20
-24.640000
 21
-24.825000
  0
LINE
 10
1.473000
 11
1.462000
 20
-24.825000
 21
-25.010000
  0
LINE
 10
1.462000
 11
1.427000
 20
-25.010000
 21
-25.191000
  0
LINE
 10
1.427000
 11
1.370000
 20
-25.191000
 21
-25.367000
  0
LINE
 10
1.370000
 11
1.291000
 20
-25.367000
 21
-25.535000
  0
LINE
 10
1.291000
 11
1.192000
 20
-25.535000
 21
-25.691000
  0
LINE
 10
1.192000
 11
1.074000
 20
-25.691000
 21
-25.833000
  0
LINE
 10
1.074000
 11
0.939000
 20
-25.833000
 21
-25.960000
  0
LINE
 10
0.939000
 11
0.789000
 20
-25.960000
 21
-26.069000
  0
LINE
 10
0.789000
 11
0.627000
 20
-26.069000
 21
-26.158000
  0
LINE
 10
0.627000
 11
0.455000
 20
-26.158000
 21
-26.226000
  0
LINE
 10
0.455000
 11
0.276000
 20
-26.226000
 21
-26.272000
  0
LINE
 10
0.276000
 11
0.093000
 20
-26.272000
 21
-26.295000
  0
LINE
 10
0.093000
 11
-0.093000
 20
-26.295000
 21
-26.295000
  0
LINE
 10
-0.093000
 11
-0.276000
 20
-26.295000
 21
-26.272000
  0
LINE
 10
-0.276000
 11
-0.455000
 20
-26.272000
 21
-26.226000
  0
LINE
 10
-0.455000
 11
-0.627000
 20
-26.226000
 21
-26.158000
  0
LINE
 10
-0.627000
 11
-0.789000
 20
-26.158000
 21
-26.069000
  0
LINE
 10
-0.789000
 11
-0.939000
 20
-26.069000
 21
-25.960000
  0
LINE
 10
-0.939000
 11
-1.074000
 20
-25.960000
 21
-25.833000
  0
LINE
 10
-1.074000
 11
-1.192000
 20
-25.833000
 21
-25.691000
  0
LINE
 10
-1.192000
 11
-1.291000
 20
-25.691000
 21
-25.535000
  0
LINE
 10
-1.291000
 11
-1.370000
 20
-25.535000
 21
-25.367000
  0
LINE
 10
-1.370000
 11
-1.427000
 20
-25.367000
 21
-25.191000
  0
LINE
 10
-1.427000
 11
-1.462000
 20
-25.191000
 21
-25.010000
  0
LINE
 10
-1.462000
 11
-1.473000
 20
-25.010000
 21
-24.825000
  0
LINE
 10
-1.473000
 11
-1.462000
 20
24.825000
 21
25.010000
  0
LINE
 10
-1.462000
 11
-1.427000
 20
25.010000
 21
25.191000
  0
LINE
 10
-1.427000
 11
-1.370000
 20
25.191000
 21
25.367000
  0
LINE
 10
-1.370000
 11
-1.291000
 20
25.367000
 21
25.535000
  0
LINE
 10
-1.291000
 11
-1.192000
 20
25.535000
 21
25.691000
  0
LINE
 10
-1.192000
 11
-1.074000
 20
25.691000
 21
25.833000
  0
LINE
 10
-1.074000
 11
-0.939000
 20
25.833000
 21
25.960000
  0
LINE
 10
-0.939000
 11
-0.789000
 20
25.960000
 21
26.069000
  0
LINE
 10
-0.789000
 11
-0.627000
 20
26.069000
 21
26.158000
  0
LINE
 10
-0.627000
 11
-0.455000
 20
26.158000
 21
26.226000
  0
LINE
 10
-0.455000
 11
-0.276000
 20
26.226000
 21
26.272000
  0
LINE
 10
-0.276000
 11
-0.093000
 20
26.272000
 21
26.295000
  0
LINE
 10
-0.093000
 11
0.093000
 20
26.295000
 21
26.295000
  0
LINE
 10
0.093000
 11
0.276000
 20
26.295000
 21
26.272000
  0
LINE
 10
0.276000
 11
0.455000
 20
26.272000
 21
26.226000
  0
LINE
 10
0.455000
 11
0.627000
 20
26.226000
 21
26.158000
  0
LINE
 10
0.627000
 11
0.789000
 20
26.158000
 21
26.069000
  0
LINE
 10
0.789000
 11
0.939000
 20
26.069000
 21
25.960000
  0
LINE
 10
0.939000
 11
1.074000
 20
25.960000
 21
25.833000
  0
LINE
 10
1.074000
 11
1.192000
 20
25.833000
 21
25.691000
  0
LINE
 10
1.192000
 11
1.291000
 20
25.691000
 21
25.535000
  0
LINE
 10
1.291000
 11
1.370000
 20
25.535000
 21
25.367000
  0
LINE
 10
1.370000
 11
1.427000
 20
25.367000
 21
25.191000
  0
LINE
 10
1.427000
 11
1.462000
 20
25.191000
 21
25.010000
  0
LINE
 10
1.462000
 11
1.473000
 20
25.010000
 21
24.825000
  0
LINE
 10
1.473000
 11
1.462000
 20
24.825000
 21
24.640000
  0
LINE
 10
1.462000
 11
1.427000
 20
24.640000
 21
24.459000
  0
LINE
 10
1.427000
 11
1.370000
 20
24.459000
 21
24.283000
  0
LINE
 10
1.370000
 11
1.291000
 20
24.283000
 21
24.115000
  0
LINE
 10
1.291000
 11
1.192000
 20
24.115000
 21
23.959000
  0
LINE
 10
1.192000
 11
1.074000
 20
23.959000
 21
23.817000
  0
LINE
 10
1.074000
 11
0.939000
 20
23.817000
 21
23.690000
  0
LINE
 10
0.939000
 11
0.789000
 20
23.690000
 21
23.581000
  0
LINE
 10
0.789000
 11
0.627000
 20
23.581000
 21
23.492000
  0
LINE
 10
0.627000
 11
0.455000
 20
23.492000
 21
23.424000
  0
LINE
 10
0.455000
 11
0.276000
 20
23.424000
 21
23.378000
  0
LINE
 10
0.276000
 11
0.093000
 20
23.378000
 21
23.355000
  0
LINE
 10
0.093000
 11
-0.093000
 20
23.355000
 21
23.355000
  0
LINE
 10
-0.093000
 11
-0.276000
 20
23.355000
 21
23.378000
  0
LINE
 10
-0.276000
 11
-0.455000
 20
23.378000
 21
23.424000
  0
LINE
 10
-0.455000
 11
-0.627000
 20
23.424000
 21
23.492000
  0
LINE
 10
-0.627000
 11
-0.789000
 20
23.492000
 21
23.581000
  0
LINE
 10
-0.789000
 11
-0.939000
 20
23.581000
 21
23.690000
  0
LINE
 10
-0.939000
 11
-1.074000
 20
23.690000
 21
23.817000
  0
LINE
 10
-1.074000
 11
-1.192000
 20
23.817000
 21
23.959000
  0
LINE
 10
-1.192000
 11
-1.291000
 20
23.959000
 21
24.115000
  0
LINE
 10
-1.291000
 11
-1.370000
 20
24.115000
 21
24.283000
  0
LINE
 10
-1.370000
 11
-1.427000
 20
24.283000
 21
24.459000
  0
LINE
 10
-1.427000
 11
-1.462000
 20
24.459000
 21
24.640000
  0
LINE
 10
-1.462000
 11
-1.473000
 20
24.640000
 21
24.825000
  0
ENDSEC
  0
EOF
