  0
SECTION
  2
ENTITIES
  0
LINE
 10
-40.211000
 11
-40.211000
 20
-38.814000
 21
38.814000
  0
LINE
 10
-40.211000
 11
-40.161000
 20
38.814000
 21
39.610000
  0
LINE
 10
-40.161000
 11
-40.012000
 20
39.610000
 21
40.393000
  0
LINE
 10
-40.012000
 11
-39.765000
 20
40.393000
 21
41.152000
  0
LINE
 10
-39.765000
 11
-39.426000
 20
41.152000
 21
41.873000
  0
LINE
 10
-39.426000
 11
-38.998000
 20
41.873000
 21
42.546000
  0
LINE
 10
-38.998000
 11
-38.490000
 20
42.546000
 21
43.161000
  0
LINE
 10
-38.490000
 11
-37.909000
 20
43.161000
 21
43.707000
  0
LINE
 10
-37.909000
 11
-37.264000
 20
43.707000
 21
44.175000
  0
LINE
 10
-37.264000
 11
-36.565000
 20
44.175000
 21
44.560000
  0
LINE
 10
-36.565000
 11
-35.823000
 20
44.560000
 21
44.853000
  0
LINE
 10
-35.823000
 11
-35.051000
 20
44.853000
 21
45.052000
  0
LINE
 10
-35.051000
 11
-34.260000
 20
45.052000
 21
45.151000
  0
LINE
 10
-34.260000
 11
-33.861000
 20
45.151000
 21
45.151000
  0
LINE
 10
-33.861000
 11
-33.861000
 20
45.151000
 21
45.164000
  0
LINE
 10
-33.861000
 11
33.861000
 20
45.164000
 21
45.164000
  0
LINE
 10
33.861000
 11
33.861000
 20
45.164000
 21
45.151000
  0
LINE
 10
33.861000
 11
34.260000
 20
45.151000
 21
45.151000
  0
LINE
 10
34.260000
 11
35.051000
 20
45.151000
 21
45.052000
  0
LINE
 10
35.051000
 11
35.823000
 20
45.052000
 21
44.853000
  0
LINE
 10
35.823000
 11
36.565000
 20
44.853000
 21
44.560000
  0
LINE
 10
36.565000
 11
37.264000
 20
44.560000
 21
44.175000
  0
LINE
 10
37.264000
 11
37.909000
 20
44.175000
 21
43.707000
  0
LINE
 10
37.909000
 11
38.490000
 20
43.707000
 21
43.161000
  0
LINE
 10
38.490000
 11
38.998000
 20
43.161000
 21
42.546000
  0
LINE
 10
38.998000
 11
39.426000
 20
42.546000
 21
41.873000
  0
LINE
 10
39.426000
 11
39.765000
 20
41.873000
 21
41.152000
  0
LINE
 10
39.765000
 11
40.012000
 20
41.152000
 21
40.393000
  0
LINE
 10
40.012000
 11
40.161000
 20
40.393000
 21
39.610000
  0
LINE
 10
40.161000
 11
40.211000
 20
39.610000
 21
38.814000
  0
LINE
 10
40.211000
 11
40.211000
 20
38.814000
 21
-38.814000
  0
LINE
 10
40.211000
 11
40.161000
 20
-38.814000
 21
-39.610000
  0
LINE
 10
40.161000
 11
40.012000
 20
-39.610000
 21
-40.393000
  0
LINE
 10
40.012000
 11
39.765000
 20
-40.393000
 21
-41.152000
  0
LINE
 10
39.765000
 11
39.426000
 20
-41.152000
 21
-41.873000
  0
LINE
 10
39.426000
 11
38.998000
 20
-41.873000
 21
-42.546000
  0
LINE
 10
38.998000
 11
38.490000
 20
-42.546000
 21
-43.161000
  0
LINE
 10
38.490000
 11
37.909000
 20
-43.161000
 21
-43.707000
  0
LINE
 10
37.909000
 11
37.264000
 20
-43.707000
 21
-44.175000
  0
LINE
 10
37.264000
 11
36.565000
 20
-44.175000
 21
-44.560000
  0
LINE
 10
36.565000
 11
35.823000
 20
-44.560000
 21
-44.853000
  0
LINE
 10
35.823000
 11
35.051000
 20
-44.853000
 21
-45.052000
  0
LINE
 10
35.051000
 11
34.260000
 20
-45.052000
 21
-45.151000
  0
LINE
 10
34.260000
 11
33.861000
 20
-45.151000
 21
-45.151000
  0
LINE
 10
33.861000
 11
33.861000
 20
-45.151000
 21
-45.164000
  0
LINE
 10
33.861000
 11
-33.861000
 20
-45.164000
 21
-45.164000
  0
LINE
 10
-33.861000
 11
-33.861000
 20
-45.164000
 21
-45.151000
  0
LINE
 10
-33.861000
 11
-34.260000
 20
-45.151000
 21
-45.151000
  0
LINE
 10
-34.260000
 11
-35.051000
 20
-45.151000
 21
-45.052000
  0
LINE
 10
-35.051000
 11
-35.823000
 20
-45.052000
 21
-44.853000
  0
LINE
 10
-35.823000
 11
-36.565000
 20
-44.853000
 21
-44.560000
  0
LINE
 10
-36.565000
 11
-37.264000
 20
-44.560000
 21
-44.175000
  0
LINE
 10
-37.264000
 11
-37.909000
 20
-44.175000
 21
-43.707000
  0
LINE
 10
-37.909000
 11
-38.490000
 20
-43.707000
 21
-43.161000
  0
LINE
 10
-38.490000
 11
-38.998000
 20
-43.161000
 21
-42.546000
  0
LINE
 10
-38.998000
 11
-39.426000
 20
-42.546000
 21
-41.873000
  0
LINE
 10
-39.426000
 11
-39.765000
 20
-41.873000
 21
-41.152000
  0
LINE
 10
-39.765000
 11
-40.012000
 20
-41.152000
 21
-40.393000
  0
LINE
 10
-40.012000
 11
-40.161000
 20
-40.393000
 21
-39.610000
  0
LINE
 10
-40.161000
 11
-40.211000
 20
-39.610000
 21
-38.814000
  0
LINE
 10
-36.147000
 11
-36.147000
 20
-26.900000
 21
-14.200000
  0
LINE
 10
-36.147000
 11
-33.147000
 20
-14.200000
 21
-14.200000
  0
LINE
 10
-33.147000
 11
-33.147000
 20
-14.200000
 21
-26.900000
  0
LINE
 10
-33.147000
 11
-36.147000
 20
-26.900000
 21
-26.900000
  0
LINE
 10
-36.147000
 11
-36.147000
 20
14.200000
 21
26.900000
  0
LINE
 10
-36.147000
 11
-33.147000
 20
26.900000
 21
26.900000
  0
LINE
 10
-33.147000
 11
-33.147000
 20
26.900000
 21
14.200000
  0
LINE
 10
-33.147000
 11
-36.147000
 20
14.200000
 21
14.200000
  0
LINE
 10
-30.175000
 11
-30.164000
 20
-33.655000
 21
-33.470000
  0
LINE
 10
-30.164000
 11
-30.129000
 20
-33.470000
 21
-33.289000
  0
LINE
 10
-30.129000
 11
-30.072000
 20
-33.289000
 21
-33.113000
  0
LINE
 10
-30.072000
 11
-29.993000
 20
-33.113000
 21
-32.945000
  0
LINE
 10
-29.993000
 11
-29.894000
 20
-32.945000
 21
-32.789000
  0
LINE
 10
-29.894000
 11
-29.776000
 20
-32.789000
 21
-32.647000
  0
LINE
 10
-29.776000
 11
-29.641000
 20
-32.647000
 21
-32.520000
  0
LINE
 10
-29.641000
 11
-29.491000
 20
-32.520000
 21
-32.411000
  0
LINE
 10
-29.491000
 11
-29.329000
 20
-32.411000
 21
-32.322000
  0
LINE
 10
-29.329000
 11
-29.157000
 20
-32.322000
 21
-32.254000
  0
LINE
 10
-29.157000
 11
-28.978000
 20
-32.254000
 21
-32.208000
  0
LINE
 10
-28.978000
 11
-28.795000
 20
-32.208000
 21
-32.185000
  0
LINE
 10
-28.795000
 11
-28.609000
 20
-32.185000
 21
-32.185000
  0
LINE
 10
-28.609000
 11
-28.426000
 20
-32.185000
 21
-32.208000
  0
LINE
 10
-28.426000
 11
-28.247000
 20
-32.208000
 21
-32.254000
  0
LINE
 10
-28.247000
 11
-28.075000
 20
-32.254000
 21
-32.322000
  0
LINE
 10
-28.075000
 11
-27.913000
 20
-32.322000
 21
-32.411000
  0
LINE
 10
-27.913000
 11
-27.763000
 20
-32.411000
 21
-32.520000
  0
LINE
 10
-27.763000
 11
-27.628000
 20
-32.520000
 21
-32.647000
  0
LINE
 10
-27.628000
 11
-27.510000
 20
-32.647000
 21
-32.789000
  0
LINE
 10
-27.510000
 11
-27.411000
 20
-32.789000
 21
-32.945000
  0
LINE
 10
-27.411000
 11
-27.332000
 20
-32.945000
 21
-33.113000
  0
LINE
 10
-27.332000
 11
-27.275000
 20
-33.113000
 21
-33.289000
  0
LINE
 10
-27.275000
 11
-27.240000
 20
-33.289000
 21
-33.470000
  0
LINE
 10
-27.240000
 11
-27.229000
 20
-33.470000
 21
-33.655000
  0
LINE
 10
-27.229000
 11
-27.240000
 20
-33.655000
 21
-33.840000
  0
LINE
 10
-27.240000
 11
-27.275000
 20
-33.840000
 21
-34.021000
  0
LINE
 10
-27.275000
 11
-27.332000
 20
-34.021000
 21
-34.197000
  0
LINE
 10
-27.332000
 11
-27.411000
 20
-34.197000
 21
-34.365000
  0
LINE
 10
-27.411000
 11
-27.510000
 20
-34.365000
 21
-34.521000
  0
LINE
 10
-27.510000
 11
-27.628000
 20
-34.521000
 21
-34.663000
  0
LINE
 10
-27.628000
 11
-27.763000
 20
-34.663000
 21
-34.790000
  0
LINE
 10
-27.763000
 11
-27.913000
 20
-34.790000
 21
-34.899000
  0
LINE
 10
-27.913000
 11
-28.075000
 20
-34.899000
 21
-34.988000
  0
LINE
 10
-28.075000
 11
-28.247000
 20
-34.988000
 21
-35.056000
  0
LINE
 10
-28.247000
 11
-28.426000
 20
-35.056000
 21
-35.102000
  0
LINE
 10
-28.426000
 11
-28.609000
 20
-35.102000
 21
-35.125000
  0
LINE
 10
-28.609000
 11
-28.795000
 20
-35.125000
 21
-35.125000
  0
LINE
 10
-28.795000
 11
-28.978000
 20
-35.125000
 21
-35.102000
  0
LINE
 10
-28.978000
 11
-29.157000
 20
-35.102000
 21
-35.056000
  0
LINE
 10
-29.157000
 11
-29.329000
 20
-35.056000
 21
-34.988000
  0
LINE
 10
-29.329000
 11
-29.491000
 20
-34.988000
 21
-34.899000
  0
LINE
 10
-29.491000
 11
-29.641000
 20
-34.899000
 21
-34.790000
  0
LINE
 10
-29.641000
 11
-29.776000
 20
-34.790000
 21
-34.663000
  0
LINE
 10
-29.776000
 11
-29.894000
 20
-34.663000
 21
-34.521000
  0
LINE
 10
-29.894000
 11
-29.993000
 20
-34.521000
 21
-34.365000
  0
LINE
 10
-29.993000
 11
-30.072000
 20
-34.365000
 21
-34.197000
  0
LINE
 10
-30.072000
 11
-30.129000
 20
-34.197000
 21
-34.021000
  0
LINE
 10
-30.129000
 11
-30.164000
 20
-34.021000
 21
-33.840000
  0
LINE
 10
-30.164000
 11
-30.175000
 20
-33.840000
 21
-33.655000
  0
LINE
 10
-30.175000
 11
-30.164000
 20
33.655000
 21
33.840000
  0
LINE
 10
-30.164000
 11
-30.129000
 20
33.840000
 21
34.021000
  0
LINE
 10
-30.129000
 11
-30.072000
 20
34.021000
 21
34.197000
  0
LINE
 10
-30.072000
 11
-29.993000
 20
34.197000
 21
34.365000
  0
LINE
 10
-29.993000
 11
-29.894000
 20
34.365000
 21
34.521000
  0
LINE
 10
-29.894000
 11
-29.776000
 20
34.521000
 21
34.663000
  0
LINE
 10
-29.776000
 11
-29.641000
 20
34.663000
 21
34.790000
  0
LINE
 10
-29.641000
 11
-29.491000
 20
34.790000
 21
34.899000
  0
LINE
 10
-29.491000
 11
-29.329000
 20
34.899000
 21
34.988000
  0
LINE
 10
-29.329000
 11
-29.157000
 20
34.988000
 21
35.056000
  0
LINE
 10
-29.157000
 11
-28.978000
 20
35.056000
 21
35.102000
  0
LINE
 10
-28.978000
 11
-28.795000
 20
35.102000
 21
35.125000
  0
LINE
 10
-28.795000
 11
-28.609000
 20
35.125000
 21
35.125000
  0
LINE
 10
-28.609000
 11
-28.426000
 20
35.125000
 21
35.102000
  0
LINE
 10
-28.426000
 11
-28.247000
 20
35.102000
 21
35.056000
  0
LINE
 10
-28.247000
 11
-28.075000
 20
35.056000
 21
34.988000
  0
LINE
 10
-28.075000
 11
-27.913000
 20
34.988000
 21
34.899000
  0
LINE
 10
-27.913000
 11
-27.763000
 20
34.899000
 21
34.790000
  0
LINE
 10
-27.763000
 11
-27.628000
 20
34.790000
 21
34.663000
  0
LINE
 10
-27.628000
 11
-27.510000
 20
34.663000
 21
34.521000
  0
LINE
 10
-27.510000
 11
-27.411000
 20
34.521000
 21
34.365000
  0
LINE
 10
-27.411000
 11
-27.332000
 20
34.365000
 21
34.197000
  0
LINE
 10
-27.332000
 11
-27.275000
 20
34.197000
 21
34.021000
  0
LINE
 10
-27.275000
 11
-27.240000
 20
34.021000
 21
33.840000
  0
LINE
 10
-27.240000
 11
-27.229000
 20
33.840000
 21
33.655000
  0
LINE
 10
-27.229000
 11
-27.240000
 20
33.655000
 21
33.470000
  0
LINE
 10
-27.240000
 11
-27.275000
 20
33.470000
 21
33.289000
  0
LINE
 10
-27.275000
 11
-27.332000
 20
33.289000
 21
33.113000
  0
LINE
 10
-27.332000
 11
-27.411000
 20
33.113000
 21
32.945000
  0
LINE
 10
-27.411000
 11
-27.510000
 20
32.945000
 21
32.789000
  0
LINE
 10
-27.510000
 11
-27.628000
 20
32.789000
 21
32.647000
  0
LINE
 10
-27.628000
 11
-27.763000
 20
32.647000
 21
32.520000
  0
LINE
 10
-27.763000
 11
-27.913000
 20
32.520000
 21
32.411000
  0
LINE
 10
-27.913000
 11
-28.075000
 20
32.411000
 21
32.322000
  0
LINE
 10
-28.075000
 11
-28.247000
 20
32.322000
 21
32.254000
  0
LINE
 10
-28.247000
 11
-28.426000
 20
32.254000
 21
32.208000
  0
LINE
 10
-28.426000
 11
-28.609000
 20
32.208000
 21
32.185000
  0
LINE
 10
-28.609000
 11
-28.795000
 20
32.185000
 21
32.185000
  0
LINE
 10
-28.795000
 11
-28.978000
 20
32.185000
 21
32.208000
  0
LINE
 10
-28.978000
 11
-29.157000
 20
32.208000
 21
32.254000
  0
LINE
 10
-29.157000
 11
-29.329000
 20
32.254000
 21
32.322000
  0
LINE
 10
-29.329000
 11
-29.491000
 20
32.322000
 21
32.411000
  0
LINE
 10
-29.491000
 11
-29.641000
 20
32.411000
 21
32.520000
  0
LINE
 10
-29.641000
 11
-29.776000
 20
32.520000
 21
32.647000
  0
LINE
 10
-29.776000
 11
-29.894000
 20
32.647000
 21
32.789000
  0
LINE
 10
-29.894000
 11
-29.993000
 20
32.789000
 21
32.945000
  0
LINE
 10
-29.993000
 11
-30.072000
 20
32.945000
 21
33.113000
  0
LINE
 10
-30.072000
 11
-30.129000
 20
33.113000
 21
33.289000
  0
LINE
 10
-30.129000
 11
-30.164000
 20
33.289000
 21
33.470000
  0
LINE
 10
-30.164000
 11
-30.175000
 20
33.470000
 21
33.655000
  0
LINE
 10
-22.924000
 11
-22.924000
 20
-41.100000
 21
-38.100000
  0
LINE
 10
-22.924000
 11
-10.224000
 20
-38.100000
 21
-38.100000
  0
LINE
 10
-10.224000
 11
-10.224000
 20
-38.100000
 21
-41.100000
  0
LINE
 10
-10.224000
 11
-22.924000
 20
-41.100000
 21
-41.100000
  0
LINE
 10
-22.924000
 11
-22.924000
 20
38.100000
 21
41.100000
  0
LINE
 10
-22.924000
 11
-10.224000
 20
41.100000
 21
41.100000
  0
LINE
 10
-10.224000
 11
-10.224000
 20
41.100000
 21
38.100000
  0
LINE
 10
-10.224000
 11
-22.924000
 20
38.100000
 21
38.100000
  0
LINE
 10
-10.071000
 11
-10.060000
 20
-24.825000
 21
-24.640000
  0
LINE
 10
-10.060000
 11
-10.025000
 20
-24.640000
 21
-24.459000
  0
LINE
 10
-10.025000
 11
-9.968000
 20
-24.459000
 21
-24.283000
  0
LINE
 10
-9.968000
 11
-9.889000
 20
-24.283000
 21
-24.115000
  0
LINE
 10
-9.889000
 11
-9.790000
 20
-24.115000
 21
-23.959000
  0
LINE
 10
-9.790000
 11
-9.672000
 20
-23.959000
 21
-23.817000
  0
LINE
 10
-9.672000
 11
-9.537000
 20
-23.817000
 21
-23.690000
  0
LINE
 10
-9.537000
 11
-9.387000
 20
-23.690000
 21
-23.581000
  0
LINE
 10
-9.387000
 11
-9.225000
 20
-23.581000
 21
-23.492000
  0
LINE
 10
-9.225000
 11
-9.053000
 20
-23.492000
 21
-23.424000
  0
LINE
 10
-9.053000
 11
-8.874000
 20
-23.424000
 21
-23.378000
  0
LINE
 10
-8.874000
 11
-8.691000
 20
-23.378000
 21
-23.355000
  0
LINE
 10
-8.691000
 11
-8.505000
 20
-23.355000
 21
-23.355000
  0
LINE
 10
-8.505000
 11
-8.322000
 20
-23.355000
 21
-23.378000
  0
LINE
 10
-8.322000
 11
-8.143000
 20
-23.378000
 21
-23.424000
  0
LINE
 10
-8.143000
 11
-7.971000
 20
-23.424000
 21
-23.492000
  0
LINE
 10
-7.971000
 11
-7.809000
 20
-23.492000
 21
-23.581000
  0
LINE
 10
-7.809000
 11
-7.659000
 20
-23.581000
 21
-23.690000
  0
LINE
 10
-7.659000
 11
-7.524000
 20
-23.690000
 21
-23.817000
  0
LINE
 10
-7.524000
 11
-7.406000
 20
-23.817000
 21
-23.959000
  0
LINE
 10
-7.406000
 11
-7.307000
 20
-23.959000
 21
-24.115000
  0
LINE
 10
-7.307000
 11
-7.228000
 20
-24.115000
 21
-24.283000
  0
LINE
 10
-7.228000
 11
-7.171000
 20
-24.283000
 21
-24.459000
  0
LINE
 10
-7.171000
 11
-7.136000
 20
-24.459000
 21
-24.640000
  0
LINE
 10
-7.136000
 11
-7.125000
 20
-24.640000
 21
-24.825000
  0
LINE
 10
-7.125000
 11
-7.136000
 20
-24.825000
 21
-25.010000
  0
LINE
 10
-7.136000
 11
-7.171000
 20
-25.010000
 21
-25.191000
  0
LINE
 10
-7.171000
 11
-7.228000
 20
-25.191000
 21
-25.367000
  0
LINE
 10
-7.228000
 11
-7.307000
 20
-25.367000
 21
-25.535000
  0
LINE
 10
-7.307000
 11
-7.406000
 20
-25.535000
 21
-25.691000
  0
LINE
 10
-7.406000
 11
-7.524000
 20
-25.691000
 21
-25.833000
  0
LINE
 10
-7.524000
 11
-7.659000
 20
-25.833000
 21
-25.960000
  0
LINE
 10
-7.659000
 11
-7.809000
 20
-25.960000
 21
-26.069000
  0
LINE
 10
-7.809000
 11
-7.971000
 20
-26.069000
 21
-26.158000
  0
LINE
 10
-7.971000
 11
-8.143000
 20
-26.158000
 21
-26.226000
  0
LINE
 10
-8.143000
 11
-8.322000
 20
-26.226000
 21
-26.272000
  0
LINE
 10
-8.322000
 11
-8.505000
 20
-26.272000
 21
-26.295000
  0
LINE
 10
-8.505000
 11
-8.691000
 20
-26.295000
 21
-26.295000
  0
LINE
 10
-8.691000
 11
-8.874000
 20
-26.295000
 21
-26.272000
  0
LINE
 10
-8.874000
 11
-9.053000
 20
-26.272000
 21
-26.226000
  0
LINE
 10
-9.053000
 11
-9.225000
 20
-26.226000
 21
-26.158000
  0
LINE
 10
-9.225000
 11
-9.387000
 20
-26.158000
 21
-26.069000
  0
LINE
 10
-9.387000
 11
-9.537000
 20
-26.069000
 21
-25.960000
  0
LINE
 10
-9.537000
 11
-9.672000
 20
-25.960000
 21
-25.833000
  0
LINE
 10
-9.672000
 11
-9.790000
 20
-25.833000
 21
-25.691000
  0
LINE
 10
-9.790000
 11
-9.889000
 20
-25.691000
 21
-25.535000
  0
LINE
 10
-9.889000
 11
-9.968000
 20
-25.535000
 21
-25.367000
  0
LINE
 10
-9.968000
 11
-10.025000
 20
-25.367000
 21
-25.191000
  0
LINE
 10
-10.025000
 11
-10.060000
 20
-25.191000
 21
-25.010000
  0
LINE
 10
-10.060000
 11
-10.071000
 20
-25.010000
 21
-24.825000
  0
LINE
 10
-10.071000
 11
-10.060000
 20
24.825000
 21
25.010000
  0
LINE
 10
-10.060000
 11
-10.025000
 20
25.010000
 21
25.191000
  0
LINE
 10
-10.025000
 11
-9.968000
 20
25.191000
 21
25.367000
  0
LINE
 10
-9.968000
 11
-9.889000
 20
25.367000
 21
25.535000
  0
LINE
 10
-9.889000
 11
-9.790000
 20
25.535000
 21
25.691000
  0
LINE
 10
-9.790000
 11
-9.672000
 20
25.691000
 21
25.833000
  0
LINE
 10
-9.672000
 11
-9.537000
 20
25.833000
 21
25.960000
  0
LINE
 10
-9.537000
 11
-9.387000
 20
25.960000
 21
26.069000
  0
LINE
 10
-9.387000
 11
-9.225000
 20
26.069000
 21
26.158000
  0
LINE
 10
-9.225000
 11
-9.053000
 20
26.158000
 21
26.226000
  0
LINE
 10
-9.053000
 11
-8.874000
 20
26.226000
 21
26.272000
  0
LINE
 10
-8.874000
 11
-8.691000
 20
26.272000
 21
26.295000
  0
LINE
 10
-8.691000
 11
-8.505000
 20
26.295000
 21
26.295000
  0
LINE
 10
-8.505000
 11
-8.322000
 20
26.295000
 21
26.272000
  0
LINE
 10
-8.322000
 11
-8.143000
 20
26.272000
 21
26.226000
  0
LINE
 10
-8.143000
 11
-7.971000
 20
26.226000
 21
26.158000
  0
LINE
 10
-7.971000
 11
-7.809000
 20
26.158000
 21
26.069000
  0
LINE
 10
-7.809000
 11
-7.659000
 20
26.069000
 21
25.960000
  0
LINE
 10
-7.659000
 11
-7.524000
 20
25.960000
 21
25.833000
  0
LINE
 10
-7.524000
 11
-7.406000
 20
25.833000
 21
25.691000
  0
LINE
 10
-7.406000
 11
-7.307000
 20
25.691000
 21
25.535000
  0
LINE
 10
-7.307000
 11
-7.228000
 20
25.535000
 21
25.367000
  0
LINE
 10
-7.228000
 11
-7.171000
 20
25.367000
 21
25.191000
  0
LINE
 10
-7.171000
 11
-7.136000
 20
25.191000
 21
25.010000
  0
LINE
 10
-7.136000
 11
-7.125000
 20
25.010000
 21
24.825000
  0
LINE
 10
-7.125000
 11
-7.136000
 20
24.825000
 21
24.640000
  0
LINE
 10
-7.136000
 11
-7.171000
 20
24.640000
 21
24.459000
  0
LINE
 10
-7.171000
 11
-7.228000
 20
24.459000
 21
24.283000
  0
LINE
 10
-7.228000
 11
-7.307000
 20
24.283000
 21
24.115000
  0
LINE
 10
-7.307000
 11
-7.406000
 20
24.115000
 21
23.959000
  0
LINE
 10
-7.406000
 11
-7.524000
 20
23.959000
 21
23.817000
  0
LINE
 10
-7.524000
 11
-7.659000
 20
23.817000
 21
23.690000
  0
LINE
 10
-7.659000
 11
-7.809000
 20
23.690000
 21
23.581000
  0
LINE
 10
-7.809000
 11
-7.971000
 20
23.581000
 21
23.492000
  0
LINE
 10
-7.971000
 11
-8.143000
 20
23.492000
 21
23.424000
  0
LINE
 10
-8.143000
 11
-8.322000
 20
23.424000
 21
23.378000
  0
LINE
 10
-8.322000
 11
-8.505000
 20
23.378000
 21
23.355000
  0
LINE
 10
-8.505000
 11
-8.691000
 20
23.355000
 21
23.355000
  0
LINE
 10
-8.691000
 11
-8.874000
 20
23.355000
 21
23.378000
  0
LINE
 10
-8.874000
 11
-9.053000
 20
23.378000
 21
23.424000
  0
LINE
 10
-9.053000
 11
-9.225000
 20
23.424000
 21
23.492000
  0
LINE
 10
-9.225000
 11
-9.387000
 20
23.492000
 21
23.581000
  0
LINE
 10
-9.387000
 11
-9.537000
 20
23.581000
 21
23.690000
  0
LINE
 10
-9.537000
 11
-9.672000
 20
23.690000
 21
23.817000
  0
LINE
 10
-9.672000
 11
-9.790000
 20
23.817000
 21
23.959000
  0
LINE
 10
-9.790000
 11
-9.889000
 20
23.959000
 21
24.115000
  0
LINE
 10
-9.889000
 11
-9.968000
 20
24.115000
 21
24.283000
  0
LINE
 10
-9.968000
 11
-10.025000
 20
24.283000
 21
24.459000
  0
LINE
 10
-10.025000
 11
-10.060000
 20
24.459000
 21
24.640000
  0
LINE
 10
-10.060000
 11
-10.071000
 20
24.640000
 21
24.825000
  0
LINE
 10
5.402000
 11
5.402000
 20
-22.860000
 21
-15.240000
  0
LINE
 10
5.402000
 11
8.402000
 20
-15.240000
 21
-15.240000
  0
LINE
 10
8.402000
 11
8.402000
 20
-15.240000
 21
-22.860000
  0
LINE
 10
8.402000
 11
5.402000
 20
-22.860000
 21
-22.860000
  0
LINE
 10
5.402000
 11
5.402000
 20
15.240000
 21
22.860000
  0
LINE
 10
5.402000
 11
8.402000
 20
22.860000
 21
22.860000
  0
LINE
 10
8.402000
 11
8.402000
 20
22.860000
 21
15.240000
  0
LINE
 10
8.402000
 11
5.402000
 20
15.240000
 21
15.240000
  0
LINE
 10
10.224000
 11
10.224000
 20
-41.100000
 21
-38.100000
  0
LINE
 10
10.224000
 11
22.924000
 20
-38.100000
 21
-38.100000
  0
LINE
 10
22.924000
 11
22.924000
 20
-38.100000
 21
-41.100000
  0
LINE
 10
22.924000
 11
10.224000
 20
-41.100000
 21
-41.100000
  0
LINE
 10
10.224000
 11
10.224000
 20
38.100000
 21
41.100000
  0
LINE
 10
10.224000
 11
22.924000
 20
41.100000
 21
41.100000
  0
LINE
 10
22.924000
 11
22.924000
 20
41.100000
 21
38.100000
  0
LINE
 10
22.924000
 11
10.224000
 20
38.100000
 21
38.100000
  0
LINE
 10
27.229000
 11
27.240000
 20
-33.655000
 21
-33.470000
  0
LINE
 10
27.240000
 11
27.275000
 20
-33.470000
 21
-33.289000
  0
LINE
 10
27.275000
 11
27.332000
 20
-33.289000
 21
-33.113000
  0
LINE
 10
27.332000
 11
27.411000
 20
-33.113000
 21
-32.945000
  0
LINE
 10
27.411000
 11
27.510000
 20
-32.945000
 21
-32.789000
  0
LINE
 10
27.510000
 11
27.628000
 20
-32.789000
 21
-32.647000
  0
LINE
 10
27.628000
 11
27.763000
 20
-32.647000
 21
-32.520000
  0
LINE
 10
27.763000
 11
27.913000
 20
-32.520000
 21
-32.411000
  0
LINE
 10
27.913000
 11
28.075000
 20
-32.411000
 21
-32.322000
  0
LINE
 10
28.075000
 11
28.247000
 20
-32.322000
 21
-32.254000
  0
LINE
 10
28.247000
 11
28.426000
 20
-32.254000
 21
-32.208000
  0
LINE
 10
28.426000
 11
28.609000
 20
-32.208000
 21
-32.185000
  0
LINE
 10
28.609000
 11
28.795000
 20
-32.185000
 21
-32.185000
  0
LINE
 10
28.795000
 11
28.978000
 20
-32.185000
 21
-32.208000
  0
LINE
 10
28.978000
 11
29.157000
 20
-32.208000
 21
-32.254000
  0
LINE
 10
29.157000
 11
29.329000
 20
-32.254000
 21
-32.322000
  0
LINE
 10
29.329000
 11
29.491000
 20
-32.322000
 21
-32.411000
  0
LINE
 10
29.491000
 11
29.641000
 20
-32.411000
 21
-32.520000
  0
LINE
 10
29.641000
 11
29.776000
 20
-32.520000
 21
-32.647000
  0
LINE
 10
29.776000
 11
29.894000
 20
-32.647000
 21
-32.789000
  0
LINE
 10
29.894000
 11
29.993000
 20
-32.789000
 21
-32.945000
  0
LINE
 10
29.993000
 11
30.072000
 20
-32.945000
 21
-33.113000
  0
LINE
 10
30.072000
 11
30.129000
 20
-33.113000
 21
-33.289000
  0
LINE
 10
30.129000
 11
30.164000
 20
-33.289000
 21
-33.470000
  0
LINE
 10
30.164000
 11
30.175000
 20
-33.470000
 21
-33.655000
  0
LINE
 10
30.175000
 11
30.164000
 20
-33.655000
 21
-33.840000
  0
LINE
 10
30.164000
 11
30.129000
 20
-33.840000
 21
-34.021000
  0
LINE
 10
30.129000
 11
30.072000
 20
-34.021000
 21
-34.197000
  0
LINE
 10
30.072000
 11
29.993000
 20
-34.197000
 21
-34.365000
  0
LINE
 10
29.993000
 11
29.894000
 20
-34.365000
 21
-34.521000
  0
LINE
 10
29.894000
 11
29.776000
 20
-34.521000
 21
-34.663000
  0
LINE
 10
29.776000
 11
29.641000
 20
-34.663000
 21
-34.790000
  0
LINE
 10
29.641000
 11
29.491000
 20
-34.790000
 21
-34.899000
  0
LINE
 10
29.491000
 11
29.329000
 20
-34.899000
 21
-34.988000
  0
LINE
 10
29.329000
 11
29.157000
 20
-34.988000
 21
-35.056000
  0
LINE
 10
29.157000
 11
28.978000
 20
-35.056000
 21
-35.102000
  0
LINE
 10
28.978000
 11
28.795000
 20
-35.102000
 21
-35.125000
  0
LINE
 10
28.795000
 11
28.609000
 20
-35.125000
 21
-35.125000
  0
LINE
 10
28.609000
 11
28.426000
 20
-35.125000
 21
-35.102000
  0
LINE
 10
28.426000
 11
28.247000
 20
-35.102000
 21
-35.056000
  0
LINE
 10
28.247000
 11
28.075000
 20
-35.056000
 21
-34.988000
  0
LINE
 10
28.075000
 11
27.913000
 20
-34.988000
 21
-34.899000
  0
LINE
 10
27.913000
 11
27.763000
 20
-34.899000
 21
-34.790000
  0
LINE
 10
27.763000
 11
27.628000
 20
-34.790000
 21
-34.663000
  0
LINE
 10
27.628000
 11
27.510000
 20
-34.663000
 21
-34.521000
  0
LINE
 10
27.510000
 11
27.411000
 20
-34.521000
 21
-34.365000
  0
LINE
 10
27.411000
 11
27.332000
 20
-34.365000
 21
-34.197000
  0
LINE
 10
27.332000
 11
27.275000
 20
-34.197000
 21
-34.021000
  0
LINE
 10
27.275000
 11
27.240000
 20
-34.021000
 21
-33.840000
  0
LINE
 10
27.240000
 11
27.229000
 20
-33.840000
 21
-33.655000
  0
LINE
 10
27.229000
 11
27.240000
 20
33.655000
 21
33.840000
  0
LINE
 10
27.240000
 11
27.275000
 20
33.840000
 21
34.021000
  0
LINE
 10
27.275000
 11
27.332000
 20
34.021000
 21
34.197000
  0
LINE
 10
27.332000
 11
27.411000
 20
34.197000
 21
34.365000
  0
LINE
 10
27.411000
 11
27.510000
 20
34.365000
 21
34.521000
  0
LINE
 10
27.510000
 11
27.628000
 20
34.521000
 21
34.663000
  0
LINE
 10
27.628000
 11
27.763000
 20
34.663000
 21
34.790000
  0
LINE
 10
27.763000
 11
27.913000
 20
34.790000
 21
34.899000
  0
LINE
 10
27.913000
 11
28.075000
 20
34.899000
 21
34.988000
  0
LINE
 10
28.075000
 11
28.247000
 20
34.988000
 21
35.056000
  0
LINE
 10
28.247000
 11
28.426000
 20
35.056000
 21
35.102000
  0
LINE
 10
28.426000
 11
28.609000
 20
35.102000
 21
35.125000
  0
LINE
 10
28.609000
 11
28.795000
 20
35.125000
 21
35.125000
  0
LINE
 10
28.795000
 11
28.978000
 20
35.125000
 21
35.102000
  0
LINE
 10
28.978000
 11
29.157000
 20
35.102000
 21
35.056000
  0
LINE
 10
29.157000
 11
29.329000
 20
35.056000
 21
34.988000
  0
LINE
 10
29.329000
 11
29.491000
 20
34.988000
 21
34.899000
  0
LINE
 10
29.491000
 11
29.641000
 20
34.899000
 21
34.790000
  0
LINE
 10
29.641000
 11
29.776000
 20
34.790000
 21
34.663000
  0
LINE
 10
29.776000
 11
29.894000
 20
34.663000
 21
34.521000
  0
LINE
 10
29.894000
 11
29.993000
 20
34.521000
 21
34.365000
  0
LINE
 10
29.993000
 11
30.072000
 20
34.365000
 21
34.197000
  0
LINE
 10
30.072000
 11
30.129000
 20
34.197000
 21
34.021000
  0
LINE
 10
30.129000
 11
30.164000
 20
34.021000
 21
33.840000
  0
LINE
 10
30.164000
 11
30.175000
 20
33.840000
 21
33.655000
  0
LINE
 10
30.175000
 11
30.164000
 20
33.655000
 21
33.470000
  0
LINE
 10
30.164000
 11
30.129000
 20
33.470000
 21
33.289000
  0
LINE
 10
30.129000
 11
30.072000
 20
33.289000
 21
33.113000
  0
LINE
 10
30.072000
 11
29.993000
 20
33.113000
 21
32.945000
  0
LINE
 10
29.993000
 11
29.894000
 20
32.945000
 21
32.789000
  0
LINE
 10
29.894000
 11
29.776000
 20
32.789000
 21
32.647000
  0
LINE
 10
29.776000
 11
29.641000
 20
32.647000
 21
32.520000
  0
LINE
 10
29.641000
 11
29.491000
 20
32.520000
 21
32.411000
  0
LINE
 10
29.491000
 11
29.329000
 20
32.411000
 21
32.322000
  0
LINE
 10
29.329000
 11
29.157000
 20
32.322000
 21
32.254000
  0
LINE
 10
29.157000
 11
28.978000
 20
32.254000
 21
32.208000
  0
LINE
 10
28.978000
 11
28.795000
 20
32.208000
 21
32.185000
  0
LINE
 10
28.795000
 11
28.609000
 20
32.185000
 21
32.185000
  0
LINE
 10
28.609000
 11
28.426000
 20
32.185000
 21
32.208000
  0
LINE
 10
28.426000
 11
28.247000
 20
32.208000
 21
32.254000
  0
LINE
 10
28.247000
 11
28.075000
 20
32.254000
 21
32.322000
  0
LINE
 10
28.075000
 11
27.913000
 20
32.322000
 21
32.411000
  0
LINE
 10
27.913000
 11
27.763000
 20
32.411000
 21
32.520000
  0
LINE
 10
27.763000
 11
27.628000
 20
32.520000
 21
32.647000
  0
LINE
 10
27.628000
 11
27.510000
 20
32.647000
 21
32.789000
  0
LINE
 10
27.510000
 11
27.411000
 20
32.789000
 21
32.945000
  0
LINE
 10
27.411000
 11
27.332000
 20
32.945000
 21
33.113000
  0
LINE
 10
27.332000
 11
27.275000
 20
33.113000
 21
33.289000
  0
LINE
 10
27.275000
 11
27.240000
 20
33.289000
 21
33.470000
  0
LINE
 10
27.240000
 11
27.229000
 20
33.470000
 21
33.655000
  0
LINE
 10
33.147000
 11
33.147000
 20
-26.900000
 21
-14.200000
  0
LINE
 10
33.147000
 11
36.147000
 20
-14.200000
 21
-14.200000
  0
LINE
 10
36.147000
 11
36.147000
 20
-14.200000
 21
-26.900000
  0
LINE
 10
36.147000
 11
33.147000
 20
-26.900000
 21
-26.900000
  0
LINE
 10
33.147000
 11
33.147000
 20
14.200000
 21
26.900000
  0
LINE
 10
33.147000
 11
36.147000
 20
26.900000
 21
26.900000
  0
LINE
 10
36.147000
 11
36.147000
 20
26.900000
 21
14.200000
  0
LINE
 10
36.147000
 11
33.147000
 20
14.200000
 21
14.200000
  0
ENDSEC
  0
EOF
