  0
SECTION
  2
ENTITIES
  0
LINE
 10
-14.000000
 11
-14.000000
 20
-30.000000
 21
30.000000
  0
LINE
 10
-14.000000
 11
14.000000
 20
30.000000
 21
30.000000
  0
LINE
 10
14.000000
 11
14.000000
 20
30.000000
 21
4.980000
  0
LINE
 10
14.000000
 11
12.181000
 20
4.980000
 21
4.980000
  0
LINE
 10
12.181000
 11
11.600000
 20
4.980000
 21
5.682000
  0
LINE
 10
11.600000
 11
10.841000
 20
5.682000
 21
6.395000
  0
LINE
 10
10.841000
 11
9.997000
 20
6.395000
 21
7.008000
  0
LINE
 10
9.997000
 11
9.084000
 20
7.008000
 21
7.510000
  0
LINE
 10
9.084000
 11
8.115000
 20
7.510000
 21
7.894000
  0
LINE
 10
8.115000
 11
7.105000
 20
7.894000
 21
8.153000
  0
LINE
 10
7.105000
 11
6.071000
 20
8.153000
 21
8.284000
  0
LINE
 10
6.071000
 11
5.029000
 20
8.284000
 21
8.284000
  0
LINE
 10
5.029000
 11
3.995000
 20
8.284000
 21
8.153000
  0
LINE
 10
3.995000
 11
2.985000
 20
8.153000
 21
7.894000
  0
LINE
 10
2.985000
 11
2.016000
 20
7.894000
 21
7.510000
  0
LINE
 10
2.016000
 11
1.103000
 20
7.510000
 21
7.008000
  0
LINE
 10
1.103000
 11
0.259000
 20
7.008000
 21
6.395000
  0
LINE
 10
0.259000
 11
-0.500000
 20
6.395000
 21
5.682000
  0
LINE
 10
-0.500000
 11
-1.165000
 20
5.682000
 21
4.879000
  0
LINE
 10
-1.165000
 11
-1.723000
 20
4.879000
 21
3.999000
  0
LINE
 10
-1.723000
 11
-2.167000
 20
3.999000
 21
3.055000
  0
LINE
 10
-2.167000
 11
-2.489000
 20
3.055000
 21
2.064000
  0
LINE
 10
-2.489000
 11
-2.685000
 20
2.064000
 21
1.040000
  0
LINE
 10
-2.685000
 11
-2.750000
 20
1.040000
 21
0.000000
  0
LINE
 10
-2.750000
 11
-2.685000
 20
0.000000
 21
-1.040000
  0
LINE
 10
-2.685000
 11
-2.489000
 20
-1.040000
 21
-2.064000
  0
LINE
 10
-2.489000
 11
-2.167000
 20
-2.064000
 21
-3.055000
  0
LINE
 10
-2.167000
 11
-1.723000
 20
-3.055000
 21
-3.999000
  0
LINE
 10
-1.723000
 11
-1.165000
 20
-3.999000
 21
-4.879000
  0
LINE
 10
-1.165000
 11
-0.500000
 20
-4.879000
 21
-5.682000
  0
LINE
 10
-0.500000
 11
0.259000
 20
-5.682000
 21
-6.395000
  0
LINE
 10
0.259000
 11
1.103000
 20
-6.395000
 21
-7.008000
  0
LINE
 10
1.103000
 11
2.016000
 20
-7.008000
 21
-7.510000
  0
LINE
 10
2.016000
 11
2.985000
 20
-7.510000
 21
-7.894000
  0
LINE
 10
2.985000
 11
3.995000
 20
-7.894000
 21
-8.153000
  0
LINE
 10
3.995000
 11
5.029000
 20
-8.153000
 21
-8.284000
  0
LINE
 10
5.029000
 11
6.071000
 20
-8.284000
 21
-8.284000
  0
LINE
 10
6.071000
 11
7.105000
 20
-8.284000
 21
-8.153000
  0
LINE
 10
7.105000
 11
8.115000
 20
-8.153000
 21
-7.894000
  0
LINE
 10
8.115000
 11
9.084000
 20
-7.894000
 21
-7.510000
  0
LINE
 10
9.084000
 11
9.997000
 20
-7.510000
 21
-7.008000
  0
LINE
 10
9.997000
 11
10.841000
 20
-7.008000
 21
-6.395000
  0
LINE
 10
10.841000
 11
11.600000
 20
-6.395000
 21
-5.682000
  0
LINE
 10
11.600000
 11
12.181000
 20
-5.682000
 21
-4.980000
  0
LINE
 10
12.181000
 11
14.000000
 20
-4.980000
 21
-4.980000
  0
LINE
 10
14.000000
 11
14.000000
 20
-4.980000
 21
-30.000000
  0
LINE
 10
14.000000
 11
-14.000000
 20
-30.000000
 21
-30.000000
  0
LINE
 10
-1.473000
 11
-1.462000
 20
-24.825000
 21
-24.640000
  0
LINE
 10
-1.462000
 11
-1.427000
 20
-24.640000
 21
-24.459000
  0
LINE
 10
-1.427000
 11
-1.370000
 20
-24.459000
 21
-24.283000
  0
LINE
 10
-1.370000
 11
-1.291000
 20
-24.283000
 21
-24.115000
  0
LINE
 10
-1.291000
 11
-1.192000
 20
-24.115000
 21
-23.959000
  0
LINE
 10
-1.192000
 11
-1.074000
 20
-23.959000
 21
-23.817000
  0
LINE
 10
-1.074000
 11
-0.939000
 20
-23.817000
 21
-23.690000
  0
LINE
 10
-0.939000
 11
-0.789000
 20
-23.690000
 21
-23.581000
  0
LINE
 10
-0.789000
 11
-0.627000
 20
-23.581000
 21
-23.492000
  0
LINE
 10
-0.627000
 11
-0.455000
 20
-23.492000
 21
-23.424000
  0
LINE
 10
-0.455000
 11
-0.276000
 20
-23.424000
 21
-23.378000
  0
LINE
 10
-0.276000
 11
-0.093000
 20
-23.378000
 21
-23.355000
  0
LINE
 10
-0.093000
 11
0.093000
 20
-23.355000
 21
-23.355000
  0
LINE
 10
0.093000
 11
0.276000
 20
-23.355000
 21
-23.378000
  0
LINE
 10
0.276000
 11
0.455000
 20
-23.378000
 21
-23.424000
  0
LINE
 10
0.455000
 11
0.627000
 20
-23.424000
 21
-23.492000
  0
LINE
 10
0.627000
 11
0.789000
 20
-23.492000
 21
-23.581000
  0
LINE
 10
0.789000
 11
0.939000
 20
-23.581000
 21
-23.690000
  0
LINE
 10
0.939000
 11
1.074000
 20
-23.690000
 21
-23.817000
  0
LINE
 10
1.074000
 11
1.192000
 20
-23.817000
 21
-23.959000
  0
LINE
 10
1.192000
 11
1.291000
 20
-23.959000
 21
-24.115000
  0
LINE
 10
1.291000
 11
1.370000
 20
-24.115000
 21
-24.283000
  0
LINE
 10
1.370000
 11
1.427000
 20
-24.283000
 21
-24.459000
  0
LINE
 10
1.427000
 11
1.462000
 20
-24.459000
 21
-24.640000
  0
LINE
 10
1.462000
 11
1.473000
 20
-24.640000
 21
-24.825000
  0
LINE
 10
1.473000
 11
1.462000
 20
-24.825000
 21
-25.010000
  0
LINE
 10
1.462000
 11
1.427000
 20
-25.010000
 21
-25.191000
  0
LINE
 10
1.427000
 11
1.370000
 20
-25.191000
 21
-25.367000
  0
LINE
 10
1.370000
 11
1.291000
 20
-25.367000
 21
-25.535000
  0
LINE
 10
1.291000
 11
1.192000
 20
-25.535000
 21
-25.691000
  0
LINE
 10
1.192000
 11
1.074000
 20
-25.691000
 21
-25.833000
  0
LINE
 10
1.074000
 11
0.939000
 20
-25.833000
 21
-25.960000
  0
LINE
 10
0.939000
 11
0.789000
 20
-25.960000
 21
-26.069000
  0
LINE
 10
0.789000
 11
0.627000
 20
-26.069000
 21
-26.158000
  0
LINE
 10
0.627000
 11
0.455000
 20
-26.158000
 21
-26.226000
  0
LINE
 10
0.455000
 11
0.276000
 20
-26.226000
 21
-26.272000
  0
LINE
 10
0.276000
 11
0.093000
 20
-26.272000
 21
-26.295000
  0
LINE
 10
0.093000
 11
-0.093000
 20
-26.295000
 21
-26.295000
  0
LINE
 10
-0.093000
 11
-0.276000
 20
-26.295000
 21
-26.272000
  0
LINE
 10
-0.276000
 11
-0.455000
 20
-26.272000
 21
-26.226000
  0
LINE
 10
-0.455000
 11
-0.627000
 20
-26.226000
 21
-26.158000
  0
LINE
 10
-0.627000
 11
-0.789000
 20
-26.158000
 21
-26.069000
  0
LINE
 10
-0.789000
 11
-0.939000
 20
-26.069000
 21
-25.960000
  0
LINE
 10
-0.939000
 11
-1.074000
 20
-25.960000
 21
-25.833000
  0
LINE
 10
-1.074000
 11
-1.192000
 20
-25.833000
 21
-25.691000
  0
LINE
 10
-1.192000
 11
-1.291000
 20
-25.691000
 21
-25.535000
  0
LINE
 10
-1.291000
 11
-1.370000
 20
-25.535000
 21
-25.367000
  0
LINE
 10
-1.370000
 11
-1.427000
 20
-25.367000
 21
-25.191000
  0
LINE
 10
-1.427000
 11
-1.462000
 20
-25.191000
 21
-25.010000
  0
LINE
 10
-1.462000
 11
-1.473000
 20
-25.010000
 21
-24.825000
  0
LINE
 10
-1.473000
 11
-1.462000
 20
24.825000
 21
25.010000
  0
LINE
 10
-1.462000
 11
-1.427000
 20
25.010000
 21
25.191000
  0
LINE
 10
-1.427000
 11
-1.370000
 20
25.191000
 21
25.367000
  0
LINE
 10
-1.370000
 11
-1.291000
 20
25.367000
 21
25.535000
  0
LINE
 10
-1.291000
 11
-1.192000
 20
25.535000
 21
25.691000
  0
LINE
 10
-1.192000
 11
-1.074000
 20
25.691000
 21
25.833000
  0
LINE
 10
-1.074000
 11
-0.939000
 20
25.833000
 21
25.960000
  0
LINE
 10
-0.939000
 11
-0.789000
 20
25.960000
 21
26.069000
  0
LINE
 10
-0.789000
 11
-0.627000
 20
26.069000
 21
26.158000
  0
LINE
 10
-0.627000
 11
-0.455000
 20
26.158000
 21
26.226000
  0
LINE
 10
-0.455000
 11
-0.276000
 20
26.226000
 21
26.272000
  0
LINE
 10
-0.276000
 11
-0.093000
 20
26.272000
 21
26.295000
  0
LINE
 10
-0.093000
 11
0.093000
 20
26.295000
 21
26.295000
  0
LINE
 10
0.093000
 11
0.276000
 20
26.295000
 21
26.272000
  0
LINE
 10
0.276000
 11
0.455000
 20
26.272000
 21
26.226000
  0
LINE
 10
0.455000
 11
0.627000
 20
26.226000
 21
26.158000
  0
LINE
 10
0.627000
 11
0.789000
 20
26.158000
 21
26.069000
  0
LINE
 10
0.789000
 11
0.939000
 20
26.069000
 21
25.960000
  0
LINE
 10
0.939000
 11
1.074000
 20
25.960000
 21
25.833000
  0
LINE
 10
1.074000
 11
1.192000
 20
25.833000
 21
25.691000
  0
LINE
 10
1.192000
 11
1.291000
 20
25.691000
 21
25.535000
  0
LINE
 10
1.291000
 11
1.370000
 20
25.535000
 21
25.367000
  0
LINE
 10
1.370000
 11
1.427000
 20
25.367000
 21
25.191000
  0
LINE
 10
1.427000
 11
1.462000
 20
25.191000
 21
25.010000
  0
LINE
 10
1.462000
 11
1.473000
 20
25.010000
 21
24.825000
  0
LINE
 10
1.473000
 11
1.462000
 20
24.825000
 21
24.640000
  0
LINE
 10
1.462000
 11
1.427000
 20
24.640000
 21
24.459000
  0
LINE
 10
1.427000
 11
1.370000
 20
24.459000
 21
24.283000
  0
LINE
 10
1.370000
 11
1.291000
 20
24.283000
 21
24.115000
  0
LINE
 10
1.291000
 11
1.192000
 20
24.115000
 21
23.959000
  0
LINE
 10
1.192000
 11
1.074000
 20
23.959000
 21
23.817000
  0
LINE
 10
1.074000
 11
0.939000
 20
23.817000
 21
23.690000
  0
LINE
 10
0.939000
 11
0.789000
 20
23.690000
 21
23.581000
  0
LINE
 10
0.789000
 11
0.627000
 20
23.581000
 21
23.492000
  0
LINE
 10
0.627000
 11
0.455000
 20
23.492000
 21
23.424000
  0
LINE
 10
0.455000
 11
0.276000
 20
23.424000
 21
23.378000
  0
LINE
 10
0.276000
 11
0.093000
 20
23.378000
 21
23.355000
  0
LINE
 10
0.093000
 11
-0.093000
 20
23.355000
 21
23.355000
  0
LINE
 10
-0.093000
 11
-0.276000
 20
23.355000
 21
23.378000
  0
LINE
 10
-0.276000
 11
-0.455000
 20
23.378000
 21
23.424000
  0
LINE
 10
-0.455000
 11
-0.627000
 20
23.424000
 21
23.492000
  0
LINE
 10
-0.627000
 11
-0.789000
 20
23.492000
 21
23.581000
  0
LINE
 10
-0.789000
 11
-0.939000
 20
23.581000
 21
23.690000
  0
LINE
 10
-0.939000
 11
-1.074000
 20
23.690000
 21
23.817000
  0
LINE
 10
-1.074000
 11
-1.192000
 20
23.817000
 21
23.959000
  0
LINE
 10
-1.192000
 11
-1.291000
 20
23.959000
 21
24.115000
  0
LINE
 10
-1.291000
 11
-1.370000
 20
24.115000
 21
24.283000
  0
LINE
 10
-1.370000
 11
-1.427000
 20
24.283000
 21
24.459000
  0
LINE
 10
-1.427000
 11
-1.462000
 20
24.459000
 21
24.640000
  0
LINE
 10
-1.462000
 11
-1.473000
 20
24.640000
 21
24.825000
  0
ENDSEC
  0
EOF
